<?xml version="1.0" encoding="UTF-8" standalone="no"?>
<svg
   xmlns:svg="http://www.w3.org/2000/svg"
   xmlns="http://www.w3.org/2000/svg"
   width="800.0"
   height="600.0"

>
    <g transform="scale(44.99999909999999, -44.99999909999999)   translate(10.444444633333337,-5.44444455333334)" stroke-width="0.02222222266666668"  fill="none">
       <!-- hidden lines -->
       <g  stroke="rgb(160,160,160)" fill="none" stroke-dasharray="0.02222222266666668,0.02222222266666668" >
			<path d="M0.0,5.0 L0.0,4.874639560909118 L0.0,4.504844339512096 L0.0,3.909157412340149 L0.0,3.1174490092936677 L0.0,2.1694186955877908 L0.0,1.1126046697815721 L0.0,3.061616997868383e-16 L0.0,-1.1126046697815717 L0.0,-2.1694186955877903 L0.0,-3.1174490092936673 L0.0,-3.909157412340149 L0.0,-4.504844339512095 L0.0,-4.874639560909118 L0.0,-4.999999999999997 " />
			<path d="M-6.0,5.0 L-6.0,4.874639560909118 L-6.0,4.504844339512096 L-6.0,3.909157412340149 L-6.0,3.1174490092936677 L-6.0,2.1694186955877908 L-6.0,1.1126046697815721 L-6.0,3.061616997868383e-16 L-6.0,-1.1126046697815717 L-6.0,-2.1694186955877903 L-6.0,-3.1174490092936673 L-6.0,-3.909157412340149 L-6.0,-4.504844339512095 L-6.0,-4.874639560909118 L-6.0,-4.999999999999997 " />
			<path d="M0.0,2.0 L-6.0,2.0 " />
			<path d="M0.0,2.0 L0.0,1.9498558243636472 L0.0,1.8019377358048383 L0.0,1.5636629649360596 L0.0,1.2469796037174672 L0.0,0.8677674782351164 L0.0,0.4450418679126289 L0.0,1.2246467991473532e-16 L0.0,-0.4450418679126287 L0.0,-0.8677674782351161 L0.0,-1.246979603717467 L0.0,-1.5636629649360596 L0.0,-1.801937735804838 L0.0,-1.9498558243636472 L0.0,-1.9999999999999991 " />
			<path d="M0.0,-2.0 L0.0,-1.9498558243636472 L0.0,-1.8019377358048383 L0.0,-1.5636629649360598 L0.0,-1.2469796037174674 L0.0,-0.8677674782351166 L0.0,-0.4450418679126292 L0.0,-3.6739403974420594e-16 L0.0,0.44504186791262845 L0.0,0.8677674782351159 L0.0,1.2469796037174667 L0.0,1.5636629649360594 L0.0,1.801937735804838 L0.0,1.949855824363647 L0.0,1.999999999999998 " />
			<path d="M-6.0,2.0 L-6.0,1.9498558243636472 L-6.0,1.8019377358048383 L-6.0,1.5636629649360596 L-6.0,1.2469796037174672 L-6.0,0.8677674782351164 L-6.0,0.4450418679126289 L-6.0,1.2246467991473532e-16 L-6.0,-0.4450418679126287 L-6.0,-0.8677674782351161 L-6.0,-1.246979603717467 L-6.0,-1.5636629649360596 L-6.0,-1.801937735804838 L-6.0,-1.9498558243636472 L-6.0,-1.9999999999999991 " />
			<path d="M-6.0,-2.0 L-6.0,-1.9498558243636472 L-6.0,-1.8019377358048383 L-6.0,-1.5636629649360598 L-6.0,-1.2469796037174674 L-6.0,-0.8677674782351166 L-6.0,-0.4450418679126292 L-6.0,-3.6739403974420594e-16 L-6.0,0.44504186791262845 L-6.0,0.8677674782351159 L-6.0,1.2469796037174667 L-6.0,1.5636629649360594 L-6.0,1.801937735804838 L-6.0,1.949855824363647 L-6.0,1.999999999999998 " />
			<path d="M-6.0,-2.0 L0.0,-2.0 " />

       </g>

       <!-- solid lines -->
       <g  stroke="rgb(0,0,0)" fill="none">
			<path d="M0.0,5.0 L-6.0,5.0 " />
			<path d="M0.0,-5.0 L0.0,-4.874639560909118 L0.0,-4.504844339512096 L0.0,-3.9091574123401496 L0.0,-3.1174490092936686 L0.0,-2.169418695587791 L0.0,-1.112604669781573 L0.0,-9.184850993605148e-16 L0.0,1.1126046697815712 L0.0,2.16941869558779 L0.0,3.117449009293667 L0.0,3.9091574123401482 L0.0,4.504844339512095 L0.0,4.8746395609091175 L0.0,4.999999999999995 " />
			<path d="M-6.0,-5.0 L-6.0,-4.874639560909118 L-6.0,-4.504844339512096 L-6.0,-3.9091574123401496 L-6.0,-3.1174490092936686 L-6.0,-2.169418695587791 L-6.0,-1.112604669781573 L-6.0,-9.184850993605148e-16 L-6.0,1.1126046697815712 L-6.0,2.16941869558779 L-6.0,3.117449009293667 L-6.0,3.9091574123401482 L-6.0,4.504844339512095 L-6.0,4.8746395609091175 L-6.0,4.999999999999995 " />
			<path d="M-6.0,-5.0 L0.0,-5.0 " />

       </g>
    </g>
    
</svg>
