ISO-10303-21;
HEADER;
FILE_DESCRIPTION(('Open CASCADE Model'),'2;1');
FILE_NAME('Open CASCADE Shape Model','2026-08-19T19:28:39',('Author'),(
    'Open CASCADE'),'Open CASCADE STEP processor 7.9','build123d',
  'Unknown');
FILE_SCHEMA(('AUTOMOTIVE_DESIGN { 1 0 10303 214 1 1 1 1 }'));
ENDSEC;
DATA;
#1 = APPLICATION_PROTOCOL_DEFINITION('international standard',
  'automotive_design',2000,#2);
#2 = APPLICATION_CONTEXT(
  'core data for automotive mechanical design processes');
#3 = SHAPE_DEFINITION_REPRESENTATION(#4,#10);
#4 = PRODUCT_DEFINITION_SHAPE('','',#5);
#5 = PRODUCT_DEFINITION('design','',#6,#9);
#6 = PRODUCT_DEFINITION_FORMATION('','',#7);
#7 = PRODUCT('COMPOUND','COMPOUND','',(#8));
#8 = PRODUCT_CONTEXT('',#2,'mechanical');
#9 = PRODUCT_DEFINITION_CONTEXT('part definition',#2,'design');
#10 = ADVANCED_BREP_SHAPE_REPRESENTATION('',(#11,#15),#1161);
#11 = AXIS2_PLACEMENT_3D('',#12,#13,#14);
#12 = CARTESIAN_POINT('',(0.,0.,0.));
#13 = DIRECTION('',(0.,0.,1.));
#14 = DIRECTION('',(1.,0.,-0.));
#15 = MANIFOLD_SOLID_BREP('',#16);
#16 = CLOSED_SHELL('',(#17,#135,#240,#288,#368,#396,#1107,#1134));
#17 = ADVANCED_FACE('',(#18),#32,.F.);
#18 = FACE_BOUND('',#19,.T.);
#19 = EDGE_LOOP('',(#20,#53,#82,#108));
#20 = ORIENTED_EDGE('',*,*,#21,.F.);
#21 = EDGE_CURVE('',#22,#24,#26,.T.);
#22 = VERTEX_POINT('',#23);
#23 = CARTESIAN_POINT('',(9.886859966643,1.5,15.));
#24 = VERTEX_POINT('',#25);
#25 = CARTESIAN_POINT('',(9.886859966643,1.5,0.));
#26 = SURFACE_CURVE('',#27,(#31,#42),.PCURVE_S1.);
#27 = LINE('',#28,#29);
#28 = CARTESIAN_POINT('',(9.886859966643,1.5,15.));
#29 = VECTOR('',#30,1.);
#30 = DIRECTION('',(-0.,-0.,-1.));
#31 = PCURVE('',#32,#37);
#32 = CYLINDRICAL_SURFACE('',#33,10.);
#33 = AXIS2_PLACEMENT_3D('',#34,#35,#36);
#34 = CARTESIAN_POINT('',(0.,0.,15.));
#35 = DIRECTION('',(-0.,-0.,-1.));
#36 = DIRECTION('',(1.,0.,0.));
#37 = DEFINITIONAL_REPRESENTATION('',(#38),#41);
#38 = B_SPLINE_CURVE_WITH_KNOTS('',1,(#39,#40),.UNSPECIFIED.,.F.,.F.,(2,
    2),(-5.999999999062E-07,15.0000006),.PIECEWISE_BEZIER_KNOTS.);
#39 = CARTESIAN_POINT('',(-0.150568272777,-5.999999999062E-07));
#40 = CARTESIAN_POINT('',(-0.150568272777,15.0000006));
#41 = ( GEOMETRIC_REPRESENTATION_CONTEXT(2) 
PARAMETRIC_REPRESENTATION_CONTEXT() REPRESENTATION_CONTEXT('2D SPACE',''
  ) );
#42 = PCURVE('',#43,#48);
#43 = PLANE('',#44);
#44 = AXIS2_PLACEMENT_3D('',#45,#46,#47);
#45 = CARTESIAN_POINT('',(0.,1.5,-1.));
#46 = DIRECTION('',(0.,1.,0.));
#47 = DIRECTION('',(0.,0.,1.));
#48 = DEFINITIONAL_REPRESENTATION('',(#49),#52);
#49 = B_SPLINE_CURVE_WITH_KNOTS('',1,(#50,#51),.UNSPECIFIED.,.F.,.F.,(2,
    2),(-5.999999999062E-07,15.0000006),.PIECEWISE_BEZIER_KNOTS.);
#50 = CARTESIAN_POINT('',(16.0000006,9.886859966643));
#51 = CARTESIAN_POINT('',(0.9999994,9.886859966643));
#52 = ( GEOMETRIC_REPRESENTATION_CONTEXT(2) 
PARAMETRIC_REPRESENTATION_CONTEXT() REPRESENTATION_CONTEXT('2D SPACE',''
  ) );
#53 = ORIENTED_EDGE('',*,*,#54,.T.);
#54 = EDGE_CURVE('',#22,#55,#57,.T.);
#55 = VERTEX_POINT('',#56);
#56 = CARTESIAN_POINT('',(9.886859966643,-1.5,15.));
#57 = SURFACE_CURVE('',#58,(#63,#70),.PCURVE_S1.);
#58 = CIRCLE('',#59,10.);
#59 = AXIS2_PLACEMENT_3D('',#60,#61,#62);
#60 = CARTESIAN_POINT('',(0.,0.,15.));
#61 = DIRECTION('',(0.,0.,1.));
#62 = DIRECTION('',(1.,0.,-0.));
#63 = PCURVE('',#32,#64);
#64 = DEFINITIONAL_REPRESENTATION('',(#65),#69);
#65 = LINE('',#66,#67);
#66 = CARTESIAN_POINT('',(-0.,0.));
#67 = VECTOR('',#68,1.);
#68 = DIRECTION('',(-1.,0.));
#69 = ( GEOMETRIC_REPRESENTATION_CONTEXT(2) 
PARAMETRIC_REPRESENTATION_CONTEXT() REPRESENTATION_CONTEXT('2D SPACE',''
  ) );
#70 = PCURVE('',#71,#76);
#71 = PLANE('',#72);
#72 = AXIS2_PLACEMENT_3D('',#73,#74,#75);
#73 = CARTESIAN_POINT('',(0.,0.,15.));
#74 = DIRECTION('',(0.,0.,1.));
#75 = DIRECTION('',(1.,0.,-0.));
#76 = DEFINITIONAL_REPRESENTATION('',(#77),#81);
#77 = CIRCLE('',#78,10.);
#78 = AXIS2_PLACEMENT_2D('',#79,#80);
#79 = CARTESIAN_POINT('',(0.,0.));
#80 = DIRECTION('',(1.,0.));
#81 = ( GEOMETRIC_REPRESENTATION_CONTEXT(2) 
PARAMETRIC_REPRESENTATION_CONTEXT() REPRESENTATION_CONTEXT('2D SPACE',''
  ) );
#82 = ORIENTED_EDGE('',*,*,#83,.T.);
#83 = EDGE_CURVE('',#55,#84,#86,.T.);
#84 = VERTEX_POINT('',#85);
#85 = CARTESIAN_POINT('',(9.886859966643,-1.5,0.));
#86 = SURFACE_CURVE('',#87,(#91,#97),.PCURVE_S1.);
#87 = LINE('',#88,#89);
#88 = CARTESIAN_POINT('',(9.886859966643,-1.5,15.));
#89 = VECTOR('',#90,1.);
#90 = DIRECTION('',(-0.,-0.,-1.));
#91 = PCURVE('',#32,#92);
#92 = DEFINITIONAL_REPRESENTATION('',(#93),#96);
#93 = B_SPLINE_CURVE_WITH_KNOTS('',1,(#94,#95),.UNSPECIFIED.,.F.,.F.,(2,
    2),(-5.999999999062E-07,15.0000006),.PIECEWISE_BEZIER_KNOTS.);
#94 = CARTESIAN_POINT('',(-6.132617034403,-5.999999999062E-07));
#95 = CARTESIAN_POINT('',(-6.132617034403,15.0000006));
#96 = ( GEOMETRIC_REPRESENTATION_CONTEXT(2) 
PARAMETRIC_REPRESENTATION_CONTEXT() REPRESENTATION_CONTEXT('2D SPACE',''
  ) );
#97 = PCURVE('',#98,#103);
#98 = PLANE('',#99);
#99 = AXIS2_PLACEMENT_3D('',#100,#101,#102);
#100 = CARTESIAN_POINT('',(0.,-1.5,-1.));
#101 = DIRECTION('',(0.,1.,0.));
#102 = DIRECTION('',(0.,0.,1.));
#103 = DEFINITIONAL_REPRESENTATION('',(#104),#107);
#104 = B_SPLINE_CURVE_WITH_KNOTS('',1,(#105,#106),.UNSPECIFIED.,.F.,.F.,
  (2,2),(-5.999999999062E-07,15.0000006),.PIECEWISE_BEZIER_KNOTS.);
#105 = CARTESIAN_POINT('',(16.0000006,9.886859966643));
#106 = CARTESIAN_POINT('',(0.9999994,9.886859966643));
#107 = ( GEOMETRIC_REPRESENTATION_CONTEXT(2) 
PARAMETRIC_REPRESENTATION_CONTEXT() REPRESENTATION_CONTEXT('2D SPACE',''
  ) );
#108 = ORIENTED_EDGE('',*,*,#109,.F.);
#109 = EDGE_CURVE('',#24,#84,#110,.T.);
#110 = SURFACE_CURVE('',#111,(#116,#123),.PCURVE_S1.);
#111 = CIRCLE('',#112,10.);
#112 = AXIS2_PLACEMENT_3D('',#113,#114,#115);
#113 = CARTESIAN_POINT('',(0.,0.,0.));
#114 = DIRECTION('',(0.,0.,1.));
#115 = DIRECTION('',(1.,0.,-0.));
#116 = PCURVE('',#32,#117);
#117 = DEFINITIONAL_REPRESENTATION('',(#118),#122);
#118 = LINE('',#119,#120);
#119 = CARTESIAN_POINT('',(-0.,15.));
#120 = VECTOR('',#121,1.);
#121 = DIRECTION('',(-1.,0.));
#122 = ( GEOMETRIC_REPRESENTATION_CONTEXT(2) 
PARAMETRIC_REPRESENTATION_CONTEXT() REPRESENTATION_CONTEXT('2D SPACE',''
  ) );
#123 = PCURVE('',#124,#129);
#124 = PLANE('',#125);
#125 = AXIS2_PLACEMENT_3D('',#126,#127,#128);
#126 = CARTESIAN_POINT('',(0.,0.,0.));
#127 = DIRECTION('',(0.,0.,1.));
#128 = DIRECTION('',(1.,0.,-0.));
#129 = DEFINITIONAL_REPRESENTATION('',(#130),#134);
#130 = CIRCLE('',#131,10.);
#131 = AXIS2_PLACEMENT_2D('',#132,#133);
#132 = CARTESIAN_POINT('',(0.,0.));
#133 = DIRECTION('',(1.,-0.));
#134 = ( GEOMETRIC_REPRESENTATION_CONTEXT(2) 
PARAMETRIC_REPRESENTATION_CONTEXT() REPRESENTATION_CONTEXT('2D SPACE',''
  ) );
#135 = ADVANCED_FACE('',(#136,#205),#43,.F.);
#136 = FACE_BOUND('',#137,.F.);
#137 = EDGE_LOOP('',(#138,#139,#160,#186));
#138 = ORIENTED_EDGE('',*,*,#21,.F.);
#139 = ORIENTED_EDGE('',*,*,#140,.F.);
#140 = EDGE_CURVE('',#141,#22,#143,.T.);
#141 = VERTEX_POINT('',#142);
#142 = CARTESIAN_POINT('',(19.943670675179,1.5,15.));
#143 = SURFACE_CURVE('',#144,(#148,#154),.PCURVE_S1.);
#144 = LINE('',#145,#146);
#145 = CARTESIAN_POINT('',(0.,1.5,15.));
#146 = VECTOR('',#147,1.);
#147 = DIRECTION('',(-1.,0.,0.));
#148 = PCURVE('',#43,#149);
#149 = DEFINITIONAL_REPRESENTATION('',(#150),#153);
#150 = B_SPLINE_CURVE_WITH_KNOTS('',1,(#151,#152),.UNSPECIFIED.,.F.,.F.,
  (2,2),(-20.,0.),.PIECEWISE_BEZIER_KNOTS.);
#151 = CARTESIAN_POINT('',(16.,20.));
#152 = CARTESIAN_POINT('',(16.,0.));
#153 = ( GEOMETRIC_REPRESENTATION_CONTEXT(2) 
PARAMETRIC_REPRESENTATION_CONTEXT() REPRESENTATION_CONTEXT('2D SPACE',''
  ) );
#154 = PCURVE('',#71,#155);
#155 = DEFINITIONAL_REPRESENTATION('',(#156),#159);
#156 = B_SPLINE_CURVE_WITH_KNOTS('',1,(#157,#158),.UNSPECIFIED.,.F.,.F.,
  (2,2),(-20.,0.),.PIECEWISE_BEZIER_KNOTS.);
#157 = CARTESIAN_POINT('',(20.,1.5));
#158 = CARTESIAN_POINT('',(0.,1.5));
#159 = ( GEOMETRIC_REPRESENTATION_CONTEXT(2) 
PARAMETRIC_REPRESENTATION_CONTEXT() REPRESENTATION_CONTEXT('2D SPACE',''
  ) );
#160 = ORIENTED_EDGE('',*,*,#161,.F.);
#161 = EDGE_CURVE('',#162,#141,#164,.T.);
#162 = VERTEX_POINT('',#163);
#163 = CARTESIAN_POINT('',(19.943670675179,1.5,0.));
#164 = SURFACE_CURVE('',#165,(#169,#175),.PCURVE_S1.);
#165 = LINE('',#166,#167);
#166 = CARTESIAN_POINT('',(19.943670675179,1.5,0.));
#167 = VECTOR('',#168,1.);
#168 = DIRECTION('',(0.,0.,1.));
#169 = PCURVE('',#43,#170);
#170 = DEFINITIONAL_REPRESENTATION('',(#171),#174);
#171 = B_SPLINE_CURVE_WITH_KNOTS('',1,(#172,#173),.UNSPECIFIED.,.F.,.F.,
  (2,2),(-6.E-07,15.0000006),.PIECEWISE_BEZIER_KNOTS.);
#172 = CARTESIAN_POINT('',(0.9999994,19.943670675179));
#173 = CARTESIAN_POINT('',(16.0000006,19.943670675179));
#174 = ( GEOMETRIC_REPRESENTATION_CONTEXT(2) 
PARAMETRIC_REPRESENTATION_CONTEXT() REPRESENTATION_CONTEXT('2D SPACE',''
  ) );
#175 = PCURVE('',#176,#181);
#176 = CYLINDRICAL_SURFACE('',#177,20.);
#177 = AXIS2_PLACEMENT_3D('',#178,#179,#180);
#178 = CARTESIAN_POINT('',(0.,0.,0.));
#179 = DIRECTION('',(0.,0.,1.));
#180 = DIRECTION('',(1.,0.,-0.));
#181 = DEFINITIONAL_REPRESENTATION('',(#182),#185);
#182 = B_SPLINE_CURVE_WITH_KNOTS('',1,(#183,#184),.UNSPECIFIED.,.F.,.F.,
  (2,2),(-6.E-07,15.0000006),.PIECEWISE_BEZIER_KNOTS.);
#183 = CARTESIAN_POINT('',(7.507049107672E-02,-6.E-07));
#184 = CARTESIAN_POINT('',(7.507049107672E-02,15.0000006));
#185 = ( GEOMETRIC_REPRESENTATION_CONTEXT(2) 
PARAMETRIC_REPRESENTATION_CONTEXT() REPRESENTATION_CONTEXT('2D SPACE',''
  ) );
#186 = ORIENTED_EDGE('',*,*,#187,.F.);
#187 = EDGE_CURVE('',#24,#162,#188,.T.);
#188 = SURFACE_CURVE('',#189,(#193,#199),.PCURVE_S1.);
#189 = LINE('',#190,#191);
#190 = CARTESIAN_POINT('',(0.,1.5,0.));
#191 = VECTOR('',#192,1.);
#192 = DIRECTION('',(1.,0.,0.));
#193 = PCURVE('',#43,#194);
#194 = DEFINITIONAL_REPRESENTATION('',(#195),#198);
#195 = B_SPLINE_CURVE_WITH_KNOTS('',1,(#196,#197),.UNSPECIFIED.,.F.,.F.,
  (2,2),(0.,20.),.PIECEWISE_BEZIER_KNOTS.);
#196 = CARTESIAN_POINT('',(1.,0.));
#197 = CARTESIAN_POINT('',(1.,20.));
#198 = ( GEOMETRIC_REPRESENTATION_CONTEXT(2) 
PARAMETRIC_REPRESENTATION_CONTEXT() REPRESENTATION_CONTEXT('2D SPACE',''
  ) );
#199 = PCURVE('',#124,#200);
#200 = DEFINITIONAL_REPRESENTATION('',(#201),#204);
#201 = B_SPLINE_CURVE_WITH_KNOTS('',1,(#202,#203),.UNSPECIFIED.,.F.,.F.,
  (2,2),(0.,20.),.PIECEWISE_BEZIER_KNOTS.);
#202 = CARTESIAN_POINT('',(0.,1.5));
#203 = CARTESIAN_POINT('',(20.,1.5));
#204 = ( GEOMETRIC_REPRESENTATION_CONTEXT(2) 
PARAMETRIC_REPRESENTATION_CONTEXT() REPRESENTATION_CONTEXT('2D SPACE',''
  ) );
#205 = FACE_BOUND('',#206,.F.);
#206 = EDGE_LOOP('',(#207));
#207 = ORIENTED_EDGE('',*,*,#208,.T.);
#208 = EDGE_CURVE('',#209,#209,#211,.T.);
#209 = VERTEX_POINT('',#210);
#210 = CARTESIAN_POINT('',(17.5,1.5,7.5));
#211 = SURFACE_CURVE('',#212,(#217,#228),.PCURVE_S1.);
#212 = CIRCLE('',#213,2.5);
#213 = AXIS2_PLACEMENT_3D('',#214,#215,#216);
#214 = CARTESIAN_POINT('',(15.,1.5,7.5));
#215 = DIRECTION('',(0.,-1.,2.22044604925E-16));
#216 = DIRECTION('',(1.,0.,0.));
#217 = PCURVE('',#43,#218);
#218 = DEFINITIONAL_REPRESENTATION('',(#219),#227);
#219 = ( BOUNDED_CURVE() B_SPLINE_CURVE(2,(#220,#221,#222,#223,#224,#225
,#226),.UNSPECIFIED.,.T.,.F.) B_SPLINE_CURVE_WITH_KNOTS((1,2,2,2,2,1),(
    -2.094395102393,0.,2.094395102393,4.188790204786,6.28318530718,
8.377580409573),.UNSPECIFIED.) CURVE() GEOMETRIC_REPRESENTATION_ITEM() 
RATIONAL_B_SPLINE_CURVE((1.,0.5,1.,0.5,1.,0.5,1.)) REPRESENTATION_ITEM(
  '') );
#220 = CARTESIAN_POINT('',(8.5,17.5));
#221 = CARTESIAN_POINT('',(12.830127018922,17.5));
#222 = CARTESIAN_POINT('',(10.665063509461,13.75));
#223 = CARTESIAN_POINT('',(8.5,10.));
#224 = CARTESIAN_POINT('',(6.334936490539,13.75));
#225 = CARTESIAN_POINT('',(4.169872981078,17.5));
#226 = CARTESIAN_POINT('',(8.5,17.5));
#227 = ( GEOMETRIC_REPRESENTATION_CONTEXT(2) 
PARAMETRIC_REPRESENTATION_CONTEXT() REPRESENTATION_CONTEXT('2D SPACE',''
  ) );
#228 = PCURVE('',#229,#234);
#229 = CYLINDRICAL_SURFACE('',#230,2.5);
#230 = AXIS2_PLACEMENT_3D('',#231,#232,#233);
#231 = CARTESIAN_POINT('',(15.,22.,7.5));
#232 = DIRECTION('',(0.,-1.,2.22044604925E-16));
#233 = DIRECTION('',(1.,0.,0.));
#234 = DEFINITIONAL_REPRESENTATION('',(#235),#239);
#235 = LINE('',#236,#237);
#236 = CARTESIAN_POINT('',(0.,20.5));
#237 = VECTOR('',#238,1.);
#238 = DIRECTION('',(1.,0.));
#239 = ( GEOMETRIC_REPRESENTATION_CONTEXT(2) 
PARAMETRIC_REPRESENTATION_CONTEXT() REPRESENTATION_CONTEXT('2D SPACE',''
  ) );
#240 = ADVANCED_FACE('',(#241),#124,.F.);
#241 = FACE_BOUND('',#242,.T.);
#242 = EDGE_LOOP('',(#243,#244,#245,#266));
#243 = ORIENTED_EDGE('',*,*,#187,.F.);
#244 = ORIENTED_EDGE('',*,*,#109,.T.);
#245 = ORIENTED_EDGE('',*,*,#246,.T.);
#246 = EDGE_CURVE('',#84,#247,#249,.T.);
#247 = VERTEX_POINT('',#248);
#248 = CARTESIAN_POINT('',(19.943670675179,-1.5,0.));
#249 = SURFACE_CURVE('',#250,(#254,#260),.PCURVE_S1.);
#250 = LINE('',#251,#252);
#251 = CARTESIAN_POINT('',(0.,-1.5,0.));
#252 = VECTOR('',#253,1.);
#253 = DIRECTION('',(1.,0.,0.));
#254 = PCURVE('',#124,#255);
#255 = DEFINITIONAL_REPRESENTATION('',(#256),#259);
#256 = B_SPLINE_CURVE_WITH_KNOTS('',1,(#257,#258),.UNSPECIFIED.,.F.,.F.,
  (2,2),(0.,20.),.PIECEWISE_BEZIER_KNOTS.);
#257 = CARTESIAN_POINT('',(0.,-1.5));
#258 = CARTESIAN_POINT('',(20.,-1.5));
#259 = ( GEOMETRIC_REPRESENTATION_CONTEXT(2) 
PARAMETRIC_REPRESENTATION_CONTEXT() REPRESENTATION_CONTEXT('2D SPACE',''
  ) );
#260 = PCURVE('',#98,#261);
#261 = DEFINITIONAL_REPRESENTATION('',(#262),#265);
#262 = B_SPLINE_CURVE_WITH_KNOTS('',1,(#263,#264),.UNSPECIFIED.,.F.,.F.,
  (2,2),(0.,20.),.PIECEWISE_BEZIER_KNOTS.);
#263 = CARTESIAN_POINT('',(1.,0.));
#264 = CARTESIAN_POINT('',(1.,20.));
#265 = ( GEOMETRIC_REPRESENTATION_CONTEXT(2) 
PARAMETRIC_REPRESENTATION_CONTEXT() REPRESENTATION_CONTEXT('2D SPACE',''
  ) );
#266 = ORIENTED_EDGE('',*,*,#267,.F.);
#267 = EDGE_CURVE('',#162,#247,#268,.T.);
#268 = SURFACE_CURVE('',#269,(#274,#281),.PCURVE_S1.);
#269 = CIRCLE('',#270,20.);
#270 = AXIS2_PLACEMENT_3D('',#271,#272,#273);
#271 = CARTESIAN_POINT('',(0.,0.,0.));
#272 = DIRECTION('',(0.,0.,1.));
#273 = DIRECTION('',(1.,0.,-0.));
#274 = PCURVE('',#124,#275);
#275 = DEFINITIONAL_REPRESENTATION('',(#276),#280);
#276 = CIRCLE('',#277,20.);
#277 = AXIS2_PLACEMENT_2D('',#278,#279);
#278 = CARTESIAN_POINT('',(0.,0.));
#279 = DIRECTION('',(1.,-0.));
#280 = ( GEOMETRIC_REPRESENTATION_CONTEXT(2) 
PARAMETRIC_REPRESENTATION_CONTEXT() REPRESENTATION_CONTEXT('2D SPACE',''
  ) );
#281 = PCURVE('',#176,#282);
#282 = DEFINITIONAL_REPRESENTATION('',(#283),#287);
#283 = LINE('',#284,#285);
#284 = CARTESIAN_POINT('',(0.,0.));
#285 = VECTOR('',#286,1.);
#286 = DIRECTION('',(1.,0.));
#287 = ( GEOMETRIC_REPRESENTATION_CONTEXT(2) 
PARAMETRIC_REPRESENTATION_CONTEXT() REPRESENTATION_CONTEXT('2D SPACE',''
  ) );
#288 = ADVANCED_FACE('',(#289,#333),#98,.T.);
#289 = FACE_BOUND('',#290,.T.);
#290 = EDGE_LOOP('',(#291,#292,#313,#332));
#291 = ORIENTED_EDGE('',*,*,#83,.F.);
#292 = ORIENTED_EDGE('',*,*,#293,.F.);
#293 = EDGE_CURVE('',#294,#55,#296,.T.);
#294 = VERTEX_POINT('',#295);
#295 = CARTESIAN_POINT('',(19.943670675179,-1.5,15.));
#296 = SURFACE_CURVE('',#297,(#301,#307),.PCURVE_S1.);
#297 = LINE('',#298,#299);
#298 = CARTESIAN_POINT('',(0.,-1.5,15.));
#299 = VECTOR('',#300,1.);
#300 = DIRECTION('',(-1.,0.,0.));
#301 = PCURVE('',#98,#302);
#302 = DEFINITIONAL_REPRESENTATION('',(#303),#306);
#303 = B_SPLINE_CURVE_WITH_KNOTS('',1,(#304,#305),.UNSPECIFIED.,.F.,.F.,
  (2,2),(-20.,0.),.PIECEWISE_BEZIER_KNOTS.);
#304 = CARTESIAN_POINT('',(16.,20.));
#305 = CARTESIAN_POINT('',(16.,0.));
#306 = ( GEOMETRIC_REPRESENTATION_CONTEXT(2) 
PARAMETRIC_REPRESENTATION_CONTEXT() REPRESENTATION_CONTEXT('2D SPACE',''
  ) );
#307 = PCURVE('',#71,#308);
#308 = DEFINITIONAL_REPRESENTATION('',(#309),#312);
#309 = B_SPLINE_CURVE_WITH_KNOTS('',1,(#310,#311),.UNSPECIFIED.,.F.,.F.,
  (2,2),(-20.,0.),.PIECEWISE_BEZIER_KNOTS.);
#310 = CARTESIAN_POINT('',(20.,-1.5));
#311 = CARTESIAN_POINT('',(0.,-1.5));
#312 = ( GEOMETRIC_REPRESENTATION_CONTEXT(2) 
PARAMETRIC_REPRESENTATION_CONTEXT() REPRESENTATION_CONTEXT('2D SPACE',''
  ) );
#313 = ORIENTED_EDGE('',*,*,#314,.F.);
#314 = EDGE_CURVE('',#247,#294,#315,.T.);
#315 = SURFACE_CURVE('',#316,(#320,#326),.PCURVE_S1.);
#316 = LINE('',#317,#318);
#317 = CARTESIAN_POINT('',(19.943670675179,-1.5,0.));
#318 = VECTOR('',#319,1.);
#319 = DIRECTION('',(0.,0.,1.));
#320 = PCURVE('',#98,#321);
#321 = DEFINITIONAL_REPRESENTATION('',(#322),#325);
#322 = B_SPLINE_CURVE_WITH_KNOTS('',1,(#323,#324),.UNSPECIFIED.,.F.,.F.,
  (2,2),(-6.E-07,15.0000006),.PIECEWISE_BEZIER_KNOTS.);
#323 = CARTESIAN_POINT('',(0.9999994,19.943670675179));
#324 = CARTESIAN_POINT('',(16.0000006,19.943670675179));
#325 = ( GEOMETRIC_REPRESENTATION_CONTEXT(2) 
PARAMETRIC_REPRESENTATION_CONTEXT() REPRESENTATION_CONTEXT('2D SPACE',''
  ) );
#326 = PCURVE('',#176,#327);
#327 = DEFINITIONAL_REPRESENTATION('',(#328),#331);
#328 = B_SPLINE_CURVE_WITH_KNOTS('',1,(#329,#330),.UNSPECIFIED.,.F.,.F.,
  (2,2),(-6.E-07,15.0000006),.PIECEWISE_BEZIER_KNOTS.);
#329 = CARTESIAN_POINT('',(6.208114816103,-6.E-07));
#330 = CARTESIAN_POINT('',(6.208114816103,15.0000006));
#331 = ( GEOMETRIC_REPRESENTATION_CONTEXT(2) 
PARAMETRIC_REPRESENTATION_CONTEXT() REPRESENTATION_CONTEXT('2D SPACE',''
  ) );
#332 = ORIENTED_EDGE('',*,*,#246,.F.);
#333 = FACE_BOUND('',#334,.T.);
#334 = EDGE_LOOP('',(#335));
#335 = ORIENTED_EDGE('',*,*,#336,.T.);
#336 = EDGE_CURVE('',#337,#337,#339,.T.);
#337 = VERTEX_POINT('',#338);
#338 = CARTESIAN_POINT('',(17.5,-1.5,7.5));
#339 = SURFACE_CURVE('',#340,(#345,#356),.PCURVE_S1.);
#340 = CIRCLE('',#341,2.5);
#341 = AXIS2_PLACEMENT_3D('',#342,#343,#344);
#342 = CARTESIAN_POINT('',(15.,-1.5,7.5));
#343 = DIRECTION('',(0.,-1.,2.22044604925E-16));
#344 = DIRECTION('',(1.,0.,0.));
#345 = PCURVE('',#98,#346);
#346 = DEFINITIONAL_REPRESENTATION('',(#347),#355);
#347 = ( BOUNDED_CURVE() B_SPLINE_CURVE(2,(#348,#349,#350,#351,#352,#353
,#354),.UNSPECIFIED.,.T.,.F.) B_SPLINE_CURVE_WITH_KNOTS((1,2,2,2,2,1),(
    -2.094395102393,0.,2.094395102393,4.188790204786,6.28318530718,
8.377580409573),.UNSPECIFIED.) CURVE() GEOMETRIC_REPRESENTATION_ITEM() 
RATIONAL_B_SPLINE_CURVE((1.,0.5,1.,0.5,1.,0.5,1.)) REPRESENTATION_ITEM(
  '') );
#348 = CARTESIAN_POINT('',(8.5,17.5));
#349 = CARTESIAN_POINT('',(12.830127018922,17.5));
#350 = CARTESIAN_POINT('',(10.665063509461,13.75));
#351 = CARTESIAN_POINT('',(8.5,10.));
#352 = CARTESIAN_POINT('',(6.334936490539,13.75));
#353 = CARTESIAN_POINT('',(4.169872981078,17.5));
#354 = CARTESIAN_POINT('',(8.5,17.5));
#355 = ( GEOMETRIC_REPRESENTATION_CONTEXT(2) 
PARAMETRIC_REPRESENTATION_CONTEXT() REPRESENTATION_CONTEXT('2D SPACE',''
  ) );
#356 = PCURVE('',#357,#362);
#357 = CYLINDRICAL_SURFACE('',#358,2.5);
#358 = AXIS2_PLACEMENT_3D('',#359,#360,#361);
#359 = CARTESIAN_POINT('',(15.,22.,7.5));
#360 = DIRECTION('',(0.,-1.,2.22044604925E-16));
#361 = DIRECTION('',(1.,0.,0.));
#362 = DEFINITIONAL_REPRESENTATION('',(#363),#367);
#363 = LINE('',#364,#365);
#364 = CARTESIAN_POINT('',(0.,23.5));
#365 = VECTOR('',#366,1.);
#366 = DIRECTION('',(1.,0.));
#367 = ( GEOMETRIC_REPRESENTATION_CONTEXT(2) 
PARAMETRIC_REPRESENTATION_CONTEXT() REPRESENTATION_CONTEXT('2D SPACE',''
  ) );
#368 = ADVANCED_FACE('',(#369),#71,.T.);
#369 = FACE_BOUND('',#370,.T.);
#370 = EDGE_LOOP('',(#371,#372,#394,#395));
#371 = ORIENTED_EDGE('',*,*,#140,.F.);
#372 = ORIENTED_EDGE('',*,*,#373,.T.);
#373 = EDGE_CURVE('',#141,#294,#374,.T.);
#374 = SURFACE_CURVE('',#375,(#380,#387),.PCURVE_S1.);
#375 = CIRCLE('',#376,20.);
#376 = AXIS2_PLACEMENT_3D('',#377,#378,#379);
#377 = CARTESIAN_POINT('',(0.,0.,15.));
#378 = DIRECTION('',(0.,0.,1.));
#379 = DIRECTION('',(1.,0.,-0.));
#380 = PCURVE('',#71,#381);
#381 = DEFINITIONAL_REPRESENTATION('',(#382),#386);
#382 = CIRCLE('',#383,20.);
#383 = AXIS2_PLACEMENT_2D('',#384,#385);
#384 = CARTESIAN_POINT('',(0.,0.));
#385 = DIRECTION('',(1.,0.));
#386 = ( GEOMETRIC_REPRESENTATION_CONTEXT(2) 
PARAMETRIC_REPRESENTATION_CONTEXT() REPRESENTATION_CONTEXT('2D SPACE',''
  ) );
#387 = PCURVE('',#176,#388);
#388 = DEFINITIONAL_REPRESENTATION('',(#389),#393);
#389 = LINE('',#390,#391);
#390 = CARTESIAN_POINT('',(0.,15.));
#391 = VECTOR('',#392,1.);
#392 = DIRECTION('',(1.,0.));
#393 = ( GEOMETRIC_REPRESENTATION_CONTEXT(2) 
PARAMETRIC_REPRESENTATION_CONTEXT() REPRESENTATION_CONTEXT('2D SPACE',''
  ) );
#394 = ORIENTED_EDGE('',*,*,#293,.T.);
#395 = ORIENTED_EDGE('',*,*,#54,.F.);
#396 = ADVANCED_FACE('',(#397,#403,#755),#176,.T.);
#397 = FACE_BOUND('',#398,.T.);
#398 = EDGE_LOOP('',(#399,#400,#401,#402));
#399 = ORIENTED_EDGE('',*,*,#161,.F.);
#400 = ORIENTED_EDGE('',*,*,#267,.T.);
#401 = ORIENTED_EDGE('',*,*,#314,.T.);
#402 = ORIENTED_EDGE('',*,*,#373,.F.);
#403 = FACE_BOUND('',#404,.T.);
#404 = EDGE_LOOP('',(#405));
#405 = ORIENTED_EDGE('',*,*,#406,.T.);
#406 = EDGE_CURVE('',#407,#407,#409,.T.);
#407 = VERTEX_POINT('',#408);
#408 = CARTESIAN_POINT('',(17.5,9.682458365519,7.5));
#409 = SURFACE_CURVE('',#410,(#523,#639),.PCURVE_S1.);
#410 = B_SPLINE_CURVE_WITH_KNOTS('',6,(#411,#412,#413,#414,#415,#416,
    #417,#418,#419,#420,#421,#422,#423,#424,#425,#426,#427,#428,#429,
    #430,#431,#432,#433,#434,#435,#436,#437,#438,#439,#440,#441,#442,
    #443,#444,#445,#446,#447,#448,#449,#450,#451,#452,#453,#454,#455,
    #456,#457,#458,#459,#460,#461,#462,#463,#464,#465,#466,#467,#468,
    #469,#470,#471,#472,#473,#474,#475,#476,#477,#478,#479,#480,#481,
    #482,#483,#484,#485,#486,#487,#488,#489,#490,#491,#492,#493,#494,
    #495,#496,#497,#498,#499,#500,#501,#502,#503,#504,#505,#506,#507,
    #508,#509,#510,#511,#512,#513,#514,#515,#516,#517,#518,#519,#520,
    #521,#522),.UNSPECIFIED.,.T.,.F.,(7,5,5,5,5,5,5,5,5,5,5,5,5,5,5,5,5,
    5,5,5,5,5,7),(0.,3.02568040143E-02,7.847633285397E-02,0.120444408043
    ,0.181855830114,0.27893900204,0.323538840142,0.363446987426,
    0.405175510288,0.454572146324,0.475518272152,0.499789581856,
    0.545180969184,0.581917555479,0.611463355101,0.635864410534,
    0.674885913158,0.719163542291,0.818201574083,0.878191066399,
    0.920848371631,0.969413741659,1.),.UNSPECIFIED.);
#411 = CARTESIAN_POINT('',(17.5,9.682458365519,7.5));
#412 = CARTESIAN_POINT('',(17.5,9.682458365519,7.59433377299));
#413 = CARTESIAN_POINT('',(17.495728333644,9.690178051867,7.688433442559
    ));
#414 = CARTESIAN_POINT('',(17.487225803839,9.705548023919,7.781670272338
    ));
#415 = CARTESIAN_POINT('',(17.474664866899,9.728187464583,7.873400349848
    ));
#416 = CARTESIAN_POINT('',(17.458366722052,9.757408749328,7.96296566603)
  );
#417 = CARTESIAN_POINT('',(17.407664719538,9.847703169678,8.187913924393
    ));
#418 = CARTESIAN_POINT('',(17.368242481311,9.917413698063,8.318993803024
    ));
#419 = CARTESIAN_POINT('',(17.321896548344,9.998475862065,8.442933472448
    ));
#420 = CARTESIAN_POINT('',(17.269727542197,10.088411258985,
    8.559817098369));
#421 = CARTESIAN_POINT('',(17.212683604459,10.18516838632,8.669806677593
    ));
#422 = CARTESIAN_POINT('',(17.098319915511,10.375845085347,
    8.863075270236));
#423 = CARTESIAN_POINT('',(17.041829143646,10.468782725122,
    8.948248572565));
#424 = CARTESIAN_POINT('',(16.982470972525,10.565011740181,
    9.028872092285));
#425 = CARTESIAN_POINT('',(16.920527611999,10.663884580655,
    9.105187383276));
#426 = CARTESIAN_POINT('',(16.856160448439,10.764986900891,
    9.177439760511));
#427 = CARTESIAN_POINT('',(16.691740130799,11.018988979842,
    9.345962338194));
#428 = CARTESIAN_POINT('',(16.588967986093,11.174187833285,
    9.437853151981));
#429 = CARTESIAN_POINT('',(16.481632965806,11.332392166602,
    9.521811343693));
#430 = CARTESIAN_POINT('',(16.370030918633,11.49282488289,9.598079502802
    ));
#431 = CARTESIAN_POINT('',(16.254258393356,11.655054628041,
    9.666785462324));
#432 = CARTESIAN_POINT('',(15.944635053674,12.077732116588,
    9.824426234522));
#433 = CARTESIAN_POINT('',(15.744582030531,12.340373787762,
    9.901885362805));
#434 = CARTESIAN_POINT('',(15.534938429644,12.60452882964,9.959568321191
    ));
#435 = CARTESIAN_POINT('',(15.316408560024,12.868540376324,
    9.996073047743));
#436 = CARTESIAN_POINT('',(15.089916594852,13.130694142561,
    10.009220706187));
#437 = CARTESIAN_POINT('',(14.750479296367,13.507362299768,
    9.989818000083));
#438 = CARTESIAN_POINT('',(14.642374760089,13.625040890055,
    9.978131703511));
#439 = CARTESIAN_POINT('',(14.5333005097,13.741502588101,9.960579425493)
  );
#440 = CARTESIAN_POINT('',(14.423584364471,13.856414273965,
    9.936871448887));
#441 = CARTESIAN_POINT('',(14.313601473692,13.969436195497,
    9.906715535065));
#442 = CARTESIAN_POINT('',(14.105508410931,14.179355299969,
    9.836799509516));
#443 = CARTESIAN_POINT('',(14.007355199147,14.276709327756,
    9.798379598501));
#444 = CARTESIAN_POINT('',(13.909744968089,14.371914791625,
    9.754382998742));
#445 = CARTESIAN_POINT('',(13.813128855404,14.464620210822,
    9.704674343397));
#446 = CARTESIAN_POINT('',(13.717980483507,14.554491240887,
    9.649157398366));
#447 = CARTESIAN_POINT('',(13.52735565654,14.731882592865,9.523593843442
    ));
#448 = CARTESIAN_POINT('',(13.43206585975,14.819105315097,9.45300226433)
  );
#449 = CARTESIAN_POINT('',(13.339627299449,14.902382885746,
    9.376028743261));
#450 = CARTESIAN_POINT('',(13.250736174635,14.981282342377,
    9.292801084388));
#451 = CARTESIAN_POINT('',(13.166066636054,15.055425192424,
    9.203547423746));
#452 = CARTESIAN_POINT('',(12.991778847512,15.206225386881,
    8.996197599391));
#453 = CARTESIAN_POINT('',(12.904164468917,15.280793996668,
    8.875880084151));
#454 = CARTESIAN_POINT('',(12.824504654871,15.347609737406,
    8.748265554952));
#455 = CARTESIAN_POINT('',(12.753779205411,15.406221728004,
    8.614196006475));
#456 = CARTESIAN_POINT('',(12.692797965031,15.456298173228,
    8.474701823588));
#457 = CARTESIAN_POINT('',(12.62066332601,15.515141817258,8.270021457699
    ));
#458 = CARTESIAN_POINT('',(12.601037455211,15.531091985889,
    8.208302644215));
#459 = CARTESIAN_POINT('',(12.583308769518,15.545454771305,
    8.145898219303));
#460 = CARTESIAN_POINT('',(12.567513735278,15.558217549138,
    8.082894764021));
#461 = CARTESIAN_POINT('',(12.553681926487,15.569370615416,
    8.019380381283));
#462 = CARTESIAN_POINT('',(12.52810959389,15.58995768217,7.881359261869)
  );
#463 = CARTESIAN_POINT('',(12.517049734058,15.598837462929,
    7.806707777994));
#464 = CARTESIAN_POINT('',(12.508691660122,15.605535894991,
    7.731629072662));
#465 = CARTESIAN_POINT('',(12.50305893146,15.610045934897,7.656262768525
    ));
#466 = CARTESIAN_POINT('',(12.500163452,15.612364129568,7.580749282454)
  );
#467 = CARTESIAN_POINT('',(12.499710018009,15.612727167569,
    7.363995876414));
#468 = CARTESIAN_POINT('',(12.508988870024,15.605297768482,
    7.222712285051));
#469 = CARTESIAN_POINT('',(12.527852605653,15.590197013057,
    7.082326714179));
#470 = CARTESIAN_POINT('',(12.556155484981,15.567467191773,6.94377890641
    ));
#471 = CARTESIAN_POINT('',(12.593609618264,15.537198881498,
    6.807966574096));
#472 = CARTESIAN_POINT('',(12.677181671656,15.469046243091,
    6.568673192924));
#473 = CARTESIAN_POINT('',(12.720285349802,15.433715172438,
    6.463967908903));
#474 = CARTESIAN_POINT('',(12.768870870003,15.393628819934,
    6.362082498003));
#475 = CARTESIAN_POINT('',(12.822634130764,15.348908347281,6.26345182074
    ));
#476 = CARTESIAN_POINT('',(12.881215239465,15.29970987343,6.16845732309)
  );
#477 = CARTESIAN_POINT('',(12.994869752874,15.203216004028,
    6.004212746379));
#478 = CARTESIAN_POINT('',(13.048379489702,15.157438045229,
    5.933571316091));
#479 = CARTESIAN_POINT('',(13.104523350246,15.10899836629,5.865670446689
    ));
#480 = CARTESIAN_POINT('',(13.163071177385,15.058014945045,
    5.800651222923));
#481 = CARTESIAN_POINT('',(13.223779390227,15.004621831824,
    5.738626840736));
#482 = CARTESIAN_POINT('',(13.338106277868,14.903010012479,
    5.631002095234));
#483 = CARTESIAN_POINT('',(13.391117320713,14.855510716318,
    5.584423961569));
#484 = CARTESIAN_POINT('',(13.445294978521,14.806548317689,
    5.539985369598));
#485 = CARTESIAN_POINT('',(13.500505644408,14.756204041359,
    5.497712713595));
#486 = CARTESIAN_POINT('',(13.556614588943,14.704564850872,
    5.457621560467));
#487 = CARTESIAN_POINT('',(13.704433106553,14.567220918522,
    5.359100149914));
#488 = CARTESIAN_POINT('',(13.797301292545,14.479671261623,
    5.304094056144));
#489 = CARTESIAN_POINT('',(13.8916247184,14.389374240884,5.254651367038)
  );
#490 = CARTESIAN_POINT('',(13.986954997752,14.296644622237,
    5.210687473974));
#491 = CARTESIAN_POINT('',(14.082863675195,14.201813637363,
    5.172080618698));
#492 = CARTESIAN_POINT('',(14.28796776044,13.99563767289,5.100764049266)
  );
#493 = CARTESIAN_POINT('',(14.397223023115,13.883778478082,
    5.069545469472));
#494 = CARTESIAN_POINT('',(14.506281834535,13.769996295932,5.04473140468
    ));
#495 = CARTESIAN_POINT('',(14.61476576554,13.654629696738,5.026037363705
    ));
#496 = CARTESIAN_POINT('',(14.722342741895,13.538011574479,
    5.013179418904));
#497 = CARTESIAN_POINT('',(15.066669573999,13.157553371922,
    4.989533771893));
#498 = CARTESIAN_POINT('',(15.298455726917,12.890201517992,
    5.000986332372));
#499 = CARTESIAN_POINT('',(15.522024759984,12.620787278349,
    5.036906312023));
#500 = CARTESIAN_POINT('',(15.736371266019,12.351149003496,
    5.094945489918));
#501 = CARTESIAN_POINT('',(15.94073930946,12.083049319495,5.173592657199
    ));
#502 = CARTESIAN_POINT('',(16.251492536231,11.658831007639,5.33180490742
    ));
#503 = CARTESIAN_POINT('',(16.364715930979,11.500270240578,
    5.398770159455));
#504 = CARTESIAN_POINT('',(16.473959945449,11.343417897967,
    5.472959512651));
#505 = CARTESIAN_POINT('',(16.579129025978,11.188676185581,
    5.554485274887));
#506 = CARTESIAN_POINT('',(16.679957515595,11.036761665895,
    5.643565976566));
#507 = CARTESIAN_POINT('',(16.844220052502,10.78369006376,5.809361218702
    ));
#508 = CARTESIAN_POINT('',(16.910036799832,10.680557008037,
    5.882207559506));
#509 = CARTESIAN_POINT('',(16.973368155602,10.579677452723,
    5.959229726592));
#510 = CARTESIAN_POINT('',(17.034050766918,10.481473761585,
    6.040681398824));
#511 = CARTESIAN_POINT('',(17.091794277379,10.386612945964,
    6.126813397881));
#512 = CARTESIAN_POINT('',(17.208095445902,10.192934645001,
    6.321488330547));
#513 = CARTESIAN_POINT('',(17.265876513453,10.095024681276,
    6.431848755784));
#514 = CARTESIAN_POINT('',(17.318752991625,10.003944034636,
    6.549185379659));
#515 = CARTESIAN_POINT('',(17.36576883307,9.921761381766,6.673679059771)
  );
#516 = CARTESIAN_POINT('',(17.405806031285,9.850994994341,6.805429990854
    ));
#517 = CARTESIAN_POINT('',(17.457446199483,9.759058998123,7.032002155718
    ));
#518 = CARTESIAN_POINT('',(17.474097587658,9.729209923572,7.122479179311
    ));
#519 = CARTESIAN_POINT('',(17.486937571329,9.706069076608,7.215188157543
    ));
#520 = CARTESIAN_POINT('',(17.495631581338,9.690352868301,7.309450886063
    ));
#521 = CARTESIAN_POINT('',(17.5,9.682458365519,7.404603940624));
#522 = CARTESIAN_POINT('',(17.5,9.682458365519,7.5));
#523 = PCURVE('',#176,#524);
#524 = DEFINITIONAL_REPRESENTATION('',(#525),#638);
#525 = B_SPLINE_CURVE_WITH_KNOTS('',6,(#526,#527,#528,#529,#530,#531,
    #532,#533,#534,#535,#536,#537,#538,#539,#540,#541,#542,#543,#544,
    #545,#546,#547,#548,#549,#550,#551,#552,#553,#554,#555,#556,#557,
    #558,#559,#560,#561,#562,#563,#564,#565,#566,#567,#568,#569,#570,
    #571,#572,#573,#574,#575,#576,#577,#578,#579,#580,#581,#582,#583,
    #584,#585,#586,#587,#588,#589,#590,#591,#592,#593,#594,#595,#596,
    #597,#598,#599,#600,#601,#602,#603,#604,#605,#606,#607,#608,#609,
    #610,#611,#612,#613,#614,#615,#616,#617,#618,#619,#620,#621,#622,
    #623,#624,#625,#626,#627,#628,#629,#630,#631,#632,#633,#634,#635,
    #636,#637),.UNSPECIFIED.,.T.,.F.,(7,5,5,5,5,5,5,5,5,5,5,5,5,5,5,5,5,
    5,5,5,5,5,7),(0.,3.02568040143E-02,7.847633285397E-02,0.120444408043
    ,0.181855830114,0.27893900204,0.323538840142,0.363446987426,
    0.405175510288,0.454572146324,0.475518272152,0.499789581856,
    0.545180969184,0.581917555479,0.611463355101,0.635864410534,
    0.674885913158,0.719163542291,0.818201574083,0.878191066399,
    0.920848371631,0.969413741659,1.),.UNSPECIFIED.);
#526 = CARTESIAN_POINT('',(0.505360510284,7.5));
#527 = CARTESIAN_POINT('',(0.505360510284,7.59433377299));
#528 = CARTESIAN_POINT('',(0.505801646938,7.688433442559));
#529 = CARTESIAN_POINT('',(0.50667989748,7.781670272338));
#530 = CARTESIAN_POINT('',(0.507974423297,7.873400349848));
#531 = CARTESIAN_POINT('',(0.509647372713,7.96296566603));
#532 = CARTESIAN_POINT('',(0.514825155879,8.187913924393));
#533 = CARTESIAN_POINT('',(0.518829407681,8.318993803024));
#534 = CARTESIAN_POINT('',(0.523498108777,8.442933472448));
#535 = CARTESIAN_POINT('',(0.528696480953,8.559817098369));
#536 = CARTESIAN_POINT('',(0.534312359413,8.669806677593));
#537 = CARTESIAN_POINT('',(0.545429537214,8.863075270236));
#538 = CARTESIAN_POINT('',(0.550867412656,8.948248572565));
#539 = CARTESIAN_POINT('',(0.556520414216,9.028872092285));
#540 = CARTESIAN_POINT('',(0.562353887323,9.105187383276));
#541 = CARTESIAN_POINT('',(0.568346381857,9.177439760511));
#542 = CARTESIAN_POINT('',(0.583475087763,9.345962338194));
#543 = CARTESIAN_POINT('',(0.592781676737,9.437853151981));
#544 = CARTESIAN_POINT('',(0.602339698227,9.521811343693));
#545 = CARTESIAN_POINT('',(0.612110264827,9.598079502802));
#546 = CARTESIAN_POINT('',(0.622074657886,9.666785462324));
#547 = CARTESIAN_POINT('',(0.648272123021,9.824426234522));
#548 = CARTESIAN_POINT('',(0.664776938991,9.901885362805));
#549 = CARTESIAN_POINT('',(0.681633648819,9.959568321191));
#550 = CARTESIAN_POINT('',(0.698764012434,9.996073047743));
#551 = CARTESIAN_POINT('',(0.716082402645,10.009220706187));
#552 = CARTESIAN_POINT('',(0.741434748703,9.989818000083));
#553 = CARTESIAN_POINT('',(0.749424195959,9.978131703511));
#554 = CARTESIAN_POINT('',(0.757401815703,9.960579425493));
#555 = CARTESIAN_POINT('',(0.765345190399,9.936871448887));
#556 = CARTESIAN_POINT('',(0.773229994981,9.906715535065));
#557 = CARTESIAN_POINT('',(0.788009097896,9.836799509516));
#558 = CARTESIAN_POINT('',(0.794921132654,9.798379598501));
#559 = CARTESIAN_POINT('',(0.801738373973,9.754382998742));
#560 = CARTESIAN_POINT('',(0.808433008733,9.704674343397));
#561 = CARTESIAN_POINT('',(0.814976912826,9.649157398366));
#562 = CARTESIAN_POINT('',(0.827996659022,9.523593843442));
#563 = CARTESIAN_POINT('',(0.834455530677,9.45300226433));
#564 = CARTESIAN_POINT('',(0.840676196684,9.376028743261));
#565 = CARTESIAN_POINT('',(0.846618782204,9.292801084388));
#566 = CARTESIAN_POINT('',(0.852245871874,9.203547423746));
#567 = CARTESIAN_POINT('',(0.863769427302,8.996197599391));
#568 = CARTESIAN_POINT('',(0.869521788882,8.875880084151));
#569 = CARTESIAN_POINT('',(0.874720189833,8.748265554952));
#570 = CARTESIAN_POINT('',(0.879312889729,8.614196006475));
#571 = CARTESIAN_POINT('',(0.883258236345,8.474701823588));
#572 = CARTESIAN_POINT('',(0.887912798781,8.270021457699));
#573 = CARTESIAN_POINT('',(0.889177295651,8.208302644215));
#574 = CARTESIAN_POINT('',(0.890318122099,8.145898219303));
#575 = CARTESIAN_POINT('',(0.891333467669,8.082894764021));
#576 = CARTESIAN_POINT('',(0.89222187899,8.019380381283));
#577 = CARTESIAN_POINT('',(0.893863350519,7.881359261869));
#578 = CARTESIAN_POINT('',(0.894572524079,7.806707777994));
#579 = CARTESIAN_POINT('',(0.895108075623,7.731629072662));
#580 = CARTESIAN_POINT('',(0.895468866561,7.656262768525));
#581 = CARTESIAN_POINT('',(0.895654324548,7.580749282454));
#582 = CARTESIAN_POINT('',(0.895683367575,7.363995876414));
#583 = CARTESIAN_POINT('',(0.895089035352,7.222712285051));
#584 = CARTESIAN_POINT('',(0.893880857203,7.082326714179));
#585 = CARTESIAN_POINT('',(0.892065859114,6.94377890641));
#586 = CARTESIAN_POINT('',(0.889658090411,6.807966574096));
#587 = CARTESIAN_POINT('',(0.884266182068,6.568673192924));
#588 = CARTESIAN_POINT('',(0.881479520639,6.463967908903));
#589 = CARTESIAN_POINT('',(0.878330155487,6.362082498003));
#590 = CARTESIAN_POINT('',(0.874833632312,6.26345182074));
#591 = CARTESIAN_POINT('',(0.871008692066,6.16845732309));
#592 = CARTESIAN_POINT('',(0.863554093611,6.004212746379));
#593 = CARTESIAN_POINT('',(0.860033140657,5.933571316091));
#594 = CARTESIAN_POINT('',(0.856325586768,5.865670446689));
#595 = CARTESIAN_POINT('',(0.852443914794,5.800651222923));
#596 = CARTESIAN_POINT('',(0.848401596916,5.738626840736));
#597 = CARTESIAN_POINT('',(0.840753786924,5.631002095234));
#598 = CARTESIAN_POINT('',(0.837194900394,5.584423961569));
#599 = CARTESIAN_POINT('',(0.833543740457,5.539985369598));
#600 = CARTESIAN_POINT('',(0.829807903139,5.497712713595));
#601 = CARTESIAN_POINT('',(0.825995198408,5.457621560467));
#602 = CARTESIAN_POINT('',(0.81590638407,5.359100149914));
#603 = CARTESIAN_POINT('',(0.809525046077,5.304094056144));
#604 = CARTESIAN_POINT('',(0.802996472096,5.254651367038));
#605 = CARTESIAN_POINT('',(0.796347242499,5.210687473974));
#606 = CARTESIAN_POINT('',(0.789603699824,5.172080618698));
#607 = CARTESIAN_POINT('',(0.775062704835,5.100764049266));
#608 = CARTESIAN_POINT('',(0.7672449151,5.069545469472));
#609 = CARTESIAN_POINT('',(0.759365055906,5.04473140468));
#610 = CARTESIAN_POINT('',(0.751447548918,5.026037363705));
#611 = CARTESIAN_POINT('',(0.743514970518,5.013179418904));
#612 = CARTESIAN_POINT('',(0.717858128779,4.989533771893));
#613 = CARTESIAN_POINT('',(0.700170223025,5.000986332372));
#614 = CARTESIAN_POINT('',(0.682671477051,5.036906312023));
#615 = CARTESIAN_POINT('',(0.665454168684,5.094945489918));
#616 = CARTESIAN_POINT('',(0.648601704079,5.173592657199));
#617 = CARTESIAN_POINT('',(0.622308703867,5.33180490742));
#618 = CARTESIAN_POINT('',(0.612567615695,5.398770159455));
#619 = CARTESIAN_POINT('',(0.603011281471,5.472959512651));
#620 = CARTESIAN_POINT('',(0.593657256059,5.554485274887));
#621 = CARTESIAN_POINT('',(0.584541213858,5.643565976566));
#622 = CARTESIAN_POINT('',(0.569455838752,5.809361218702));
#623 = CARTESIAN_POINT('',(0.56333877505,5.882207559506));
#624 = CARTESIAN_POINT('',(0.557383441519,5.959229726592));
#625 = CARTESIAN_POINT('',(0.551611651109,6.040681398824));
#626 = CARTESIAN_POINT('',(0.546059076362,6.126813397881));
#627 = CARTESIAN_POINT('',(0.534763364115,6.321488330547));
#628 = CARTESIAN_POINT('',(0.529079117791,6.431848755784));
#629 = CARTESIAN_POINT('',(0.523813470633,6.549185379659));
#630 = CARTESIAN_POINT('',(0.519079511939,6.673679059771));
#631 = CARTESIAN_POINT('',(0.51501417146,6.805429990854));
#632 = CARTESIAN_POINT('',(0.509741853571,7.032002155718));
#633 = CARTESIAN_POINT('',(0.508032887448,7.122479179311));
#634 = CARTESIAN_POINT('',(0.50670967056,7.215188157543));
#635 = CARTESIAN_POINT('',(0.505811637153,7.309450886063));
#636 = CARTESIAN_POINT('',(0.505360510284,7.404603940624));
#637 = CARTESIAN_POINT('',(0.505360510284,7.5));
#638 = ( GEOMETRIC_REPRESENTATION_CONTEXT(2) 
PARAMETRIC_REPRESENTATION_CONTEXT() REPRESENTATION_CONTEXT('2D SPACE',''
  ) );
#639 = PCURVE('',#229,#640);
#640 = DEFINITIONAL_REPRESENTATION('',(#641),#754);
#641 = B_SPLINE_CURVE_WITH_KNOTS('',6,(#642,#643,#644,#645,#646,#647,
    #648,#649,#650,#651,#652,#653,#654,#655,#656,#657,#658,#659,#660,
    #661,#662,#663,#664,#665,#666,#667,#668,#669,#670,#671,#672,#673,
    #674,#675,#676,#677,#678,#679,#680,#681,#682,#683,#684,#685,#686,
    #687,#688,#689,#690,#691,#692,#693,#694,#695,#696,#697,#698,#699,
    #700,#701,#702,#703,#704,#705,#706,#707,#708,#709,#710,#711,#712,
    #713,#714,#715,#716,#717,#718,#719,#720,#721,#722,#723,#724,#725,
    #726,#727,#728,#729,#730,#731,#732,#733,#734,#735,#736,#737,#738,
    #739,#740,#741,#742,#743,#744,#745,#746,#747,#748,#749,#750,#751,
    #752,#753),.UNSPECIFIED.,.F.,.F.,(7,5,5,5,5,5,5,5,5,5,5,5,5,5,5,5,5,
    5,5,5,5,5,7),(0.,3.02568040143E-02,7.847633285397E-02,0.120444408043
    ,0.181855830114,0.27893900204,0.323538840142,0.363446987426,
    0.405175510288,0.454572146324,0.475518272152,0.499789581856,
    0.545180969184,0.581917555479,0.611463355101,0.635864410534,
    0.674885913158,0.719163542291,0.818201574083,0.878191066399,
    0.920848371631,0.969413741659,1.),.UNSPECIFIED.);
#642 = CARTESIAN_POINT('',(0.,12.317541634481));
#643 = CARTESIAN_POINT('',(3.77335091961E-02,12.317541634481));
#644 = CARTESIAN_POINT('',(7.537342573819E-02,12.309821948133));
#645 = CARTESIAN_POINT('',(0.112764728901,12.294451976081));
#646 = CARTESIAN_POINT('',(0.149744601739,12.271812535417));
#647 = CARTESIAN_POINT('',(0.186127377833,12.242591250672));
#648 = CARTESIAN_POINT('',(0.278363953658,12.152296830322));
#649 = CARTESIAN_POINT('',(0.332980064406,12.082586301937));
#650 = CARTESIAN_POINT('',(0.385746152079,12.001524137935));
#651 = CARTESIAN_POINT('',(0.436808879212,11.911588741015));
#652 = CARTESIAN_POINT('',(0.486292420125,11.81483161368));
#653 = CARTESIAN_POINT('',(0.576120524638,11.624154914653));
#654 = CARTESIAN_POINT('',(0.616948422254,11.531217274878));
#655 = CARTESIAN_POINT('',(0.656925545334,11.434988259819));
#656 = CARTESIAN_POINT('',(0.696178736075,11.336115419345));
#657 = CARTESIAN_POINT('',(0.734845105798,11.235013099109));
#658 = CARTESIAN_POINT('',(0.829022725255,10.981011020158));
#659 = CARTESIAN_POINT('',(0.884039648456,10.825812166715));
#660 = CARTESIAN_POINT('',(0.93837505025,10.667607833398));
#661 = CARTESIAN_POINT('',(0.992279144048,10.50717511711));
#662 = CARTESIAN_POINT('',(1.046016467551,10.344945371959));
#663 = CARTESIAN_POINT('',(1.184994005612,9.922267883412));
#664 = CARTESIAN_POINT('',(1.270362786117,9.659626212238));
#665 = CARTESIAN_POINT('',(1.356669184816,9.39547117036));
#666 = CARTESIAN_POINT('',(1.444559288327,9.131459623676));
#667 = CARTESIAN_POINT('',(1.534708842588,8.869305857439));
#668 = CARTESIAN_POINT('',(1.670705398196,8.492637700232));
#669 = CARTESIAN_POINT('',(1.714143445916,8.374959109945));
#670 = CARTESIAN_POINT('',(1.758244093812,8.258497411899));
#671 = CARTESIAN_POINT('',(1.803044497042,8.143585726035));
#672 = CARTESIAN_POINT('',(1.848588567999,8.030563804503));
#673 = CARTESIAN_POINT('',(1.936398338205,7.820644700031));
#674 = CARTESIAN_POINT('',(1.978509656959,7.723290672244));
#675 = CARTESIAN_POINT('',(2.02125396602,7.628085208375));
#676 = CARTESIAN_POINT('',(2.064625558005,7.535379789178));
#677 = CARTESIAN_POINT('',(2.108624891388,7.445508759113));
#678 = CARTESIAN_POINT('',(2.199930121013,7.268117407135));
#679 = CARTESIAN_POINT('',(2.247293626528,7.180894684903));
#680 = CARTESIAN_POINT('',(2.295291793746,7.097617114254));
#681 = CARTESIAN_POINT('',(2.343874359654,7.018717657623));
#682 = CARTESIAN_POINT('',(2.392995577072,6.944574807576));
#683 = CARTESIAN_POINT('',(2.50134330092,6.793774613119));
#684 = CARTESIAN_POINT('',(2.560734381935,6.719206003332));
#685 = CARTESIAN_POINT('',(2.620676508106,6.652390262594));
#686 = CARTESIAN_POINT('',(2.681066834965,6.593778271996));
#687 = CARTESIAN_POINT('',(2.741799574807,6.543701826772));
#688 = CARTESIAN_POINT('',(2.82860737015,6.484858182742));
#689 = CARTESIAN_POINT('',(2.854500521653,6.468908014111));
#690 = CARTESIAN_POINT('',(2.880431315697,6.454545228695));
#691 = CARTESIAN_POINT('',(2.906393712029,6.441782450862));
#692 = CARTESIAN_POINT('',(2.932382182429,6.430629384584));
#693 = CARTESIAN_POINT('',(2.988530234718,6.41004231783));
#694 = CARTESIAN_POINT('',(3.0186969444,6.401162537071));
#695 = CARTESIAN_POINT('',(3.048884337207,6.394464105009));
#696 = CARTESIAN_POINT('',(3.079085252786,6.389954065103));
#697 = CARTESIAN_POINT('',(3.109292872985,6.387635870432));
#698 = CARTESIAN_POINT('',(3.195994425112,6.387272832431));
#699 = CARTESIAN_POINT('',(3.252499916911,6.394702231518));
#700 = CARTESIAN_POINT('',(3.308962935735,6.409802986943));
#701 = CARTESIAN_POINT('',(3.36533242533,6.432532808227));
#702 = CARTESIAN_POINT('',(3.421559239152,6.462801118502));
#703 = CARTESIAN_POINT('',(3.522946110398,6.530953756909));
#704 = CARTESIAN_POINT('',(3.568170943598,6.566284827562));
#705 = CARTESIAN_POINT('',(3.613221891729,6.606371180066));
#706 = CARTESIAN_POINT('',(3.658057514253,6.651091652719));
#707 = CARTESIAN_POINT('',(3.702637541371,6.70029012657));
#708 = CARTESIAN_POINT('',(3.782531099957,6.796783995972));
#709 = CARTESIAN_POINT('',(3.817946403404,6.842561954771));
#710 = CARTESIAN_POINT('',(3.853141151066,6.89100163371));
#711 = CARTESIAN_POINT('',(3.888093260363,6.941985054955));
#712 = CARTESIAN_POINT('',(3.922780236742,6.995378168176));
#713 = CARTESIAN_POINT('',(3.985586253118,7.096989987521));
#714 = CARTESIAN_POINT('',(4.013796323483,7.144489283682));
#715 = CARTESIAN_POINT('',(4.041800992313,7.193451682311));
#716 = CARTESIAN_POINT('',(4.069592332838,7.243795958641));
#717 = CARTESIAN_POINT('',(4.097161762686,7.295435149128));
#718 = CARTESIAN_POINT('',(4.168218677886,7.432779081478));
#719 = CARTESIAN_POINT('',(4.211332111865,7.520328738377));
#720 = CARTESIAN_POINT('',(4.253846060522,7.610625759116));
#721 = CARTESIAN_POINT('',(4.295759817423,7.703355377763));
#722 = CARTESIAN_POINT('',(4.337067026461,7.798186362637));
#723 = CARTESIAN_POINT('',(4.423926673119,8.00436232711));
#724 = CARTESIAN_POINT('',(4.469305873398,8.116221521918));
#725 = CARTESIAN_POINT('',(4.513946429065,8.230003704068));
#726 = CARTESIAN_POINT('',(4.557890163413,8.345370303262));
#727 = CARTESIAN_POINT('',(4.601172151613,8.461988425521));
#728 = CARTESIAN_POINT('',(4.739227261727,8.842446628078));
#729 = CARTESIAN_POINT('',(4.831410652146,9.109798482008));
#730 = CARTESIAN_POINT('',(4.921203687813,9.379212721651));
#731 = CARTESIAN_POINT('',(5.009320410248,9.648850996503));
#732 = CARTESIAN_POINT('',(5.096443086081,9.916950680505));
#733 = CARTESIAN_POINT('',(5.235927097534,10.341168992361));
#734 = CARTESIAN_POINT('',(5.28843984243,10.499729759422));
#735 = CARTESIAN_POINT('',(5.341107131125,10.656582102033));
#736 = CARTESIAN_POINT('',(5.3941730422,10.811323814419));
#737 = CARTESIAN_POINT('',(5.447871478046,10.963238334105));
#738 = CARTESIAN_POINT('',(5.541226922104,11.21630993624));
#739 = CARTESIAN_POINT('',(5.580455559585,11.319442991963));
#740 = CARTESIAN_POINT('',(5.620276222838,11.420322547277));
#741 = CARTESIAN_POINT('',(5.660831790606,11.518526238415));
#742 = CARTESIAN_POINT('',(5.702254323071,11.613387054036));
#743 = CARTESIAN_POINT('',(5.792962021715,11.807065354999));
#744 = CARTESIAN_POINT('',(5.84271208229,11.904975318724));
#745 = CARTESIAN_POINT('',(5.894053797639,11.996055965364));
#746 = CARTESIAN_POINT('',(5.947118849355,12.078238618234));
#747 = CARTESIAN_POINT('',(6.002060435668,12.149005005659));
#748 = CARTESIAN_POINT('',(6.095013458523,12.240941001877));
#749 = CARTESIAN_POINT('',(6.131779445581,12.270790076428));
#750 = CARTESIAN_POINT('',(6.169160652955,12.293930923392));
#751 = CARTESIAN_POINT('',(6.20696560929,12.309647131699));
#752 = CARTESIAN_POINT('',(6.245026883429,12.317541634481));
#753 = CARTESIAN_POINT('',(6.28318530718,12.317541634481));
#754 = ( GEOMETRIC_REPRESENTATION_CONTEXT(2) 
PARAMETRIC_REPRESENTATION_CONTEXT() REPRESENTATION_CONTEXT('2D SPACE',''
  ) );
#755 = FACE_BOUND('',#756,.T.);
#756 = EDGE_LOOP('',(#757));
#757 = ORIENTED_EDGE('',*,*,#758,.F.);
#758 = EDGE_CURVE('',#759,#759,#761,.T.);
#759 = VERTEX_POINT('',#760);
#760 = CARTESIAN_POINT('',(17.5,-9.682458365519,7.5));
#761 = SURFACE_CURVE('',#762,(#875,#991),.PCURVE_S1.);
#762 = B_SPLINE_CURVE_WITH_KNOTS('',6,(#763,#764,#765,#766,#767,#768,
    #769,#770,#771,#772,#773,#774,#775,#776,#777,#778,#779,#780,#781,
    #782,#783,#784,#785,#786,#787,#788,#789,#790,#791,#792,#793,#794,
    #795,#796,#797,#798,#799,#800,#801,#802,#803,#804,#805,#806,#807,
    #808,#809,#810,#811,#812,#813,#814,#815,#816,#817,#818,#819,#820,
    #821,#822,#823,#824,#825,#826,#827,#828,#829,#830,#831,#832,#833,
    #834,#835,#836,#837,#838,#839,#840,#841,#842,#843,#844,#845,#846,
    #847,#848,#849,#850,#851,#852,#853,#854,#855,#856,#857,#858,#859,
    #860,#861,#862,#863,#864,#865,#866,#867,#868,#869,#870,#871,#872,
    #873,#874),.UNSPECIFIED.,.T.,.F.,(7,5,5,5,5,5,5,5,5,5,5,5,5,5,5,5,5,
    5,5,5,5,5,7),(0.,3.025680395191E-02,7.847633268525E-02,
    0.120444405783,0.181855827758,0.278938999559,0.323538837603,
    0.363446984821,0.405175507602,0.454572144553,0.475518270366,
    0.499789580052,0.545180967349,0.581917553619,0.61146335322,
    0.635864408636,0.674885911224,0.719163540304,0.818201571975,
    0.878191064218,0.920848371619,0.969413741655,1.),.UNSPECIFIED.);
#763 = CARTESIAN_POINT('',(17.5,-9.682458365519,7.5));
#764 = CARTESIAN_POINT('',(17.5,-9.682458365519,7.59433377299));
#765 = CARTESIAN_POINT('',(17.495728333644,-9.690178051867,
    7.688433442559));
#766 = CARTESIAN_POINT('',(17.487225803839,-9.705548023919,
    7.781670272338));
#767 = CARTESIAN_POINT('',(17.474664866899,-9.728187464583,
    7.873400349848));
#768 = CARTESIAN_POINT('',(17.458366722052,-9.757408749328,7.96296566603
    ));
#769 = CARTESIAN_POINT('',(17.407664719542,-9.84770316967,8.187913924373
    ));
#770 = CARTESIAN_POINT('',(17.368242481313,-9.91741369806,8.318993803028
    ));
#771 = CARTESIAN_POINT('',(17.321896548337,-9.998475862079,
    8.442933472467));
#772 = CARTESIAN_POINT('',(17.269727542191,-10.08841125899,
    8.559817098374));
#773 = CARTESIAN_POINT('',(17.21268360447,-10.1851683863,8.669806677575)
  );
#774 = CARTESIAN_POINT('',(17.098319918036,-10.37584508113,
    8.863075265969));
#775 = CARTESIAN_POINT('',(17.041829139118,-10.46878273241,
    8.948248578763));
#776 = CARTESIAN_POINT('',(16.982470972859,-10.5650117398,9.028872092719
    ));
#777 = CARTESIAN_POINT('',(16.920527616687,-10.66388457318,9.10518737728
    ));
#778 = CARTESIAN_POINT('',(16.856160445197,-10.76498690589,
    9.177439763833));
#779 = CARTESIAN_POINT('',(16.69174013083,-11.01898897979,9.345962338163
    ));
#780 = CARTESIAN_POINT('',(16.588967986051,-11.17418783335,
    9.437853152033));
#781 = CARTESIAN_POINT('',(16.481632965794,-11.33239216661,
    9.521811343678));
#782 = CARTESIAN_POINT('',(16.370030918691,-11.49282488281,
    9.598079502779));
#783 = CARTESIAN_POINT('',(16.254258393322,-11.65505462808,
    9.666785462341));
#784 = CARTESIAN_POINT('',(15.944635053674,-12.07773211658,
    9.824426234522));
#785 = CARTESIAN_POINT('',(15.744582030531,-12.34037378776,
    9.901885362805));
#786 = CARTESIAN_POINT('',(15.534938429644,-12.60452882964,9.95956832119
    ));
#787 = CARTESIAN_POINT('',(15.316408560024,-12.86854037632,
    9.996073047743));
#788 = CARTESIAN_POINT('',(15.089916594852,-13.13069414256,
    10.009220706187));
#789 = CARTESIAN_POINT('',(14.750479296368,-13.50736229976,
    9.989818000083));
#790 = CARTESIAN_POINT('',(14.642374760088,-13.62504089005,
    9.978131703511));
#791 = CARTESIAN_POINT('',(14.533300509699,-13.7415025881,9.960579425493
    ));
#792 = CARTESIAN_POINT('',(14.423584364471,-13.85641427396,
    9.936871448887));
#793 = CARTESIAN_POINT('',(14.313601473693,-13.96943619549,
    9.906715535065));
#794 = CARTESIAN_POINT('',(14.105508410965,-14.17935529993,
    9.836799509527));
#795 = CARTESIAN_POINT('',(14.00735519914,-14.27670932776,9.798379598503
    ));
#796 = CARTESIAN_POINT('',(13.909744968059,-14.37191479165,
    9.754382998727));
#797 = CARTESIAN_POINT('',(13.813128855396,-14.46462021082,
    9.704674343387));
#798 = CARTESIAN_POINT('',(13.717980483535,-14.55449124086,
    9.649157398384));
#799 = CARTESIAN_POINT('',(13.52735565654,-14.73188259286,9.523593843442
    ));
#800 = CARTESIAN_POINT('',(13.43206585975,-14.81910531509,9.45300226433)
  );
#801 = CARTESIAN_POINT('',(13.339627299449,-14.90238288574,
    9.376028743261));
#802 = CARTESIAN_POINT('',(13.250736174635,-14.98128234237,
    9.292801084388));
#803 = CARTESIAN_POINT('',(13.166066636054,-15.05542519242,
    9.203547423746));
#804 = CARTESIAN_POINT('',(12.991778845579,-15.20622538855,
    8.996197597092));
#805 = CARTESIAN_POINT('',(12.90416447135,-15.2807939946,8.875880088209)
  );
#806 = CARTESIAN_POINT('',(12.82450465532,-15.34760973699,8.748265554744
    ));
#807 = CARTESIAN_POINT('',(12.753779203193,-15.40622172987,
    8.614196002324));
#808 = CARTESIAN_POINT('',(12.692797966004,-15.45629817243,
    8.474701826349));
#809 = CARTESIAN_POINT('',(12.62066332601,-15.51514181725,8.270021457699
    ));
#810 = CARTESIAN_POINT('',(12.601037455211,-15.53109198588,
    8.208302644215));
#811 = CARTESIAN_POINT('',(12.583308769518,-15.5454547713,8.145898219303
    ));
#812 = CARTESIAN_POINT('',(12.567513735278,-15.55821754913,
    8.082894764021));
#813 = CARTESIAN_POINT('',(12.553681926487,-15.56937061541,
    8.019380381283));
#814 = CARTESIAN_POINT('',(12.52810959389,-15.58995768217,7.881359261869
    ));
#815 = CARTESIAN_POINT('',(12.517049734058,-15.59883746292,
    7.806707777994));
#816 = CARTESIAN_POINT('',(12.508691660122,-15.60553589499,
    7.731629072662));
#817 = CARTESIAN_POINT('',(12.50305893146,-15.61004593489,7.656262768525
    ));
#818 = CARTESIAN_POINT('',(12.500163452,-15.61236412956,7.580749282454)
  );
#819 = CARTESIAN_POINT('',(12.499710018009,-15.61272716756,
    7.363995876414));
#820 = CARTESIAN_POINT('',(12.508988870024,-15.60529776848,
    7.222712285051));
#821 = CARTESIAN_POINT('',(12.527852605653,-15.59019701305,
    7.082326714179));
#822 = CARTESIAN_POINT('',(12.556155484981,-15.56746719177,6.94377890641
    ));
#823 = CARTESIAN_POINT('',(12.593609618264,-15.53719888149,
    6.807966574096));
#824 = CARTESIAN_POINT('',(12.677181671656,-15.46904624309,
    6.568673192924));
#825 = CARTESIAN_POINT('',(12.720285349802,-15.43371517243,
    6.463967908903));
#826 = CARTESIAN_POINT('',(12.768870870003,-15.39362881993,
    6.362082498003));
#827 = CARTESIAN_POINT('',(12.822634130764,-15.34890834728,6.26345182074
    ));
#828 = CARTESIAN_POINT('',(12.881215239465,-15.29970987343,6.16845732309
    ));
#829 = CARTESIAN_POINT('',(12.994869752874,-15.20321600402,
    6.004212746379));
#830 = CARTESIAN_POINT('',(13.048379489702,-15.15743804522,
    5.933571316091));
#831 = CARTESIAN_POINT('',(13.104523350246,-15.10899836629,
    5.865670446689));
#832 = CARTESIAN_POINT('',(13.163071177385,-15.05801494504,
    5.800651222923));
#833 = CARTESIAN_POINT('',(13.223779390227,-15.00462183182,
    5.738626840736));
#834 = CARTESIAN_POINT('',(13.338106277868,-14.90301001247,
    5.631002095234));
#835 = CARTESIAN_POINT('',(13.391117320713,-14.85551071631,
    5.584423961569));
#836 = CARTESIAN_POINT('',(13.445294978521,-14.80654831768,
    5.539985369598));
#837 = CARTESIAN_POINT('',(13.500505644408,-14.75620404135,
    5.497712713595));
#838 = CARTESIAN_POINT('',(13.556614588943,-14.70456485087,
    5.457621560467));
#839 = CARTESIAN_POINT('',(13.704433106534,-14.56722091854,
    5.359100149927));
#840 = CARTESIAN_POINT('',(13.797301292551,-14.47967126161,
    5.304094056138));
#841 = CARTESIAN_POINT('',(13.891624718421,-14.38937424086,
    5.254651367027));
#842 = CARTESIAN_POINT('',(13.986954997757,-14.29664462223,
    5.210687473975));
#843 = CARTESIAN_POINT('',(14.082863675172,-14.20181363738,
    5.172080618706));
#844 = CARTESIAN_POINT('',(14.287967760436,-13.99563767289,
    5.100764049267));
#845 = CARTESIAN_POINT('',(14.397223023116,-13.88377847808,
    5.069545469471));
#846 = CARTESIAN_POINT('',(14.506281834538,-13.76999629592,
    5.044731404679));
#847 = CARTESIAN_POINT('',(14.614765765541,-13.65462969673,
    5.026037363705));
#848 = CARTESIAN_POINT('',(14.722342741892,-13.53801157448,
    5.013179418905));
#849 = CARTESIAN_POINT('',(15.066669573999,-13.15755337192,
    4.989533771893));
#850 = CARTESIAN_POINT('',(15.298455726917,-12.89020151799,
    5.000986332372));
#851 = CARTESIAN_POINT('',(15.522024759984,-12.62078727834,
    5.036906312023));
#852 = CARTESIAN_POINT('',(15.736371266019,-12.35114900349,
    5.094945489918));
#853 = CARTESIAN_POINT('',(15.94073930946,-12.08304931949,5.173592657199
    ));
#854 = CARTESIAN_POINT('',(16.251492536231,-11.65883100763,5.33180490742
    ));
#855 = CARTESIAN_POINT('',(16.364715930979,-11.50027024057,
    5.398770159455));
#856 = CARTESIAN_POINT('',(16.473959945449,-11.34341789796,
    5.472959512651));
#857 = CARTESIAN_POINT('',(16.579129025978,-11.18867618558,
    5.554485274887));
#858 = CARTESIAN_POINT('',(16.679957515594,-11.03676166589,
    5.643565976566));
#859 = CARTESIAN_POINT('',(16.844220056057,-10.78369005828,5.80936122229
    ));
#860 = CARTESIAN_POINT('',(16.910036794701,-10.68055701619,
    5.882207553023));
#861 = CARTESIAN_POINT('',(16.973368155229,-10.57967745313,
    5.959229727064));
#862 = CARTESIAN_POINT('',(17.034050771872,-10.48147375362,
    6.040681405526));
#863 = CARTESIAN_POINT('',(17.091794274621,-10.38661295055,
    6.126813393265));
#864 = CARTESIAN_POINT('',(17.208095445902,-10.192934645,6.321488330547)
  );
#865 = CARTESIAN_POINT('',(17.265876513454,-10.09502468127,
    6.431848755784));
#866 = CARTESIAN_POINT('',(17.318752991625,-10.00394403463,
    6.549185379659));
#867 = CARTESIAN_POINT('',(17.36576883307,-9.921761381766,6.673679059771
    ));
#868 = CARTESIAN_POINT('',(17.405806031285,-9.850994994341,
    6.805429990854));
#869 = CARTESIAN_POINT('',(17.457446199483,-9.759058998123,
    7.032002155718));
#870 = CARTESIAN_POINT('',(17.474097587658,-9.729209923572,
    7.122479179311));
#871 = CARTESIAN_POINT('',(17.486937571329,-9.706069076608,
    7.215188157543));
#872 = CARTESIAN_POINT('',(17.495631581338,-9.690352868301,
    7.309450886063));
#873 = CARTESIAN_POINT('',(17.5,-9.682458365519,7.404603940624));
#874 = CARTESIAN_POINT('',(17.5,-9.682458365519,7.5));
#875 = PCURVE('',#176,#876);
#876 = DEFINITIONAL_REPRESENTATION('',(#877),#990);
#877 = B_SPLINE_CURVE_WITH_KNOTS('',6,(#878,#879,#880,#881,#882,#883,
    #884,#885,#886,#887,#888,#889,#890,#891,#892,#893,#894,#895,#896,
    #897,#898,#899,#900,#901,#902,#903,#904,#905,#906,#907,#908,#909,
    #910,#911,#912,#913,#914,#915,#916,#917,#918,#919,#920,#921,#922,
    #923,#924,#925,#926,#927,#928,#929,#930,#931,#932,#933,#934,#935,
    #936,#937,#938,#939,#940,#941,#942,#943,#944,#945,#946,#947,#948,
    #949,#950,#951,#952,#953,#954,#955,#956,#957,#958,#959,#960,#961,
    #962,#963,#964,#965,#966,#967,#968,#969,#970,#971,#972,#973,#974,
    #975,#976,#977,#978,#979,#980,#981,#982,#983,#984,#985,#986,#987,
    #988,#989),.UNSPECIFIED.,.T.,.F.,(7,5,5,5,5,5,5,5,5,5,5,5,5,5,5,5,5,
    5,5,5,5,5,7),(0.,3.025680395191E-02,7.847633268525E-02,
    0.120444405783,0.181855827758,0.278938999559,0.323538837603,
    0.363446984821,0.405175507602,0.454572144553,0.475518270366,
    0.499789580052,0.545180967349,0.581917553619,0.61146335322,
    0.635864408636,0.674885911224,0.719163540304,0.818201571975,
    0.878191064218,0.920848371619,0.969413741655,1.),.UNSPECIFIED.);
#878 = CARTESIAN_POINT('',(5.777824796895,7.5));
#879 = CARTESIAN_POINT('',(5.777824796895,7.59433377299));
#880 = CARTESIAN_POINT('',(5.777383660241,7.688433442559));
#881 = CARTESIAN_POINT('',(5.7765054097,7.781670272338));
#882 = CARTESIAN_POINT('',(5.775210883883,7.873400349848));
#883 = CARTESIAN_POINT('',(5.773537934467,7.96296566603));
#884 = CARTESIAN_POINT('',(5.768360151301,8.187913924373));
#885 = CARTESIAN_POINT('',(5.764355899499,8.318993803028));
#886 = CARTESIAN_POINT('',(5.759687198402,8.442933472467));
#887 = CARTESIAN_POINT('',(5.754488826226,8.559817098374));
#888 = CARTESIAN_POINT('',(5.748872947768,8.669806677575));
#889 = CARTESIAN_POINT('',(5.737755770211,8.863075265969));
#890 = CARTESIAN_POINT('',(5.732317894094,8.948248578763));
#891 = CARTESIAN_POINT('',(5.726664892989,9.028872092719));
#892 = CARTESIAN_POINT('',(5.720831420297,9.10518737728));
#893 = CARTESIAN_POINT('',(5.714838925024,9.177439763833));
#894 = CARTESIAN_POINT('',(5.699710219419,9.345962338163));
#895 = CARTESIAN_POINT('',(5.690403630439,9.437853152033));
#896 = CARTESIAN_POINT('',(5.680845608952,9.521811343678));
#897 = CARTESIAN_POINT('',(5.671075042357,9.598079502779));
#898 = CARTESIAN_POINT('',(5.66111064929,9.666785462341));
#899 = CARTESIAN_POINT('',(5.634913184158,9.824426234522));
#900 = CARTESIAN_POINT('',(5.618408368189,9.901885362805));
#901 = CARTESIAN_POINT('',(5.601551658361,9.95956832119));
#902 = CARTESIAN_POINT('',(5.584421294746,9.996073047743));
#903 = CARTESIAN_POINT('',(5.567102904535,10.009220706187));
#904 = CARTESIAN_POINT('',(5.541750558477,9.989818000083));
#905 = CARTESIAN_POINT('',(5.533761111221,9.978131703511));
#906 = CARTESIAN_POINT('',(5.525783491477,9.960579425493));
#907 = CARTESIAN_POINT('',(5.51784011678,9.936871448887));
#908 = CARTESIAN_POINT('',(5.509955312199,9.906715535065));
#909 = CARTESIAN_POINT('',(5.495176209286,9.836799509527));
#910 = CARTESIAN_POINT('',(5.488264174525,9.798379598503));
#911 = CARTESIAN_POINT('',(5.481446933204,9.754382998727));
#912 = CARTESIAN_POINT('',(5.474752298446,9.704674343387));
#913 = CARTESIAN_POINT('',(5.468208394356,9.649157398384));
#914 = CARTESIAN_POINT('',(5.455188648157,9.523593843442));
#915 = CARTESIAN_POINT('',(5.448729776503,9.45300226433));
#916 = CARTESIAN_POINT('',(5.442509110496,9.376028743261));
#917 = CARTESIAN_POINT('',(5.436566524976,9.292801084388));
#918 = CARTESIAN_POINT('',(5.430939435306,9.203547423746));
#919 = CARTESIAN_POINT('',(5.41941587975,8.996197597092));
#920 = CARTESIAN_POINT('',(5.413663518457,8.875880088209));
#921 = CARTESIAN_POINT('',(5.408465117377,8.748265554744));
#922 = CARTESIAN_POINT('',(5.403872417306,8.614196002324));
#923 = CARTESIAN_POINT('',(5.399927070897,8.474701826349));
#924 = CARTESIAN_POINT('',(5.395272508398,8.270021457699));
#925 = CARTESIAN_POINT('',(5.394008011528,8.208302644215));
#926 = CARTESIAN_POINT('',(5.392867185081,8.145898219303));
#927 = CARTESIAN_POINT('',(5.391851839511,8.082894764021));
#928 = CARTESIAN_POINT('',(5.39096342819,8.019380381283));
#929 = CARTESIAN_POINT('',(5.389321956661,7.881359261869));
#930 = CARTESIAN_POINT('',(5.388612783101,7.806707777994));
#931 = CARTESIAN_POINT('',(5.388077231557,7.731629072662));
#932 = CARTESIAN_POINT('',(5.387716440619,7.656262768525));
#933 = CARTESIAN_POINT('',(5.387530982631,7.580749282454));
#934 = CARTESIAN_POINT('',(5.387501939604,7.363995876414));
#935 = CARTESIAN_POINT('',(5.388096271828,7.222712285051));
#936 = CARTESIAN_POINT('',(5.389304449977,7.082326714179));
#937 = CARTESIAN_POINT('',(5.391119448065,6.94377890641));
#938 = CARTESIAN_POINT('',(5.393527216769,6.807966574096));
#939 = CARTESIAN_POINT('',(5.398919125112,6.568673192924));
#940 = CARTESIAN_POINT('',(5.401705786541,6.463967908903));
#941 = CARTESIAN_POINT('',(5.404855151692,6.362082498003));
#942 = CARTESIAN_POINT('',(5.408351674868,6.26345182074));
#943 = CARTESIAN_POINT('',(5.412176615114,6.16845732309));
#944 = CARTESIAN_POINT('',(5.419631213569,6.004212746379));
#945 = CARTESIAN_POINT('',(5.423152166523,5.933571316091));
#946 = CARTESIAN_POINT('',(5.426859720412,5.865670446689));
#947 = CARTESIAN_POINT('',(5.430741392386,5.800651222923));
#948 = CARTESIAN_POINT('',(5.434783710264,5.738626840736));
#949 = CARTESIAN_POINT('',(5.442431520255,5.631002095234));
#950 = CARTESIAN_POINT('',(5.445990406785,5.584423961569));
#951 = CARTESIAN_POINT('',(5.449641566723,5.539985369598));
#952 = CARTESIAN_POINT('',(5.453377404041,5.497712713595));
#953 = CARTESIAN_POINT('',(5.457190108771,5.457621560467));
#954 = CARTESIAN_POINT('',(5.467278923108,5.359100149927));
#955 = CARTESIAN_POINT('',(5.473660261103,5.304094056138));
#956 = CARTESIAN_POINT('',(5.480188835085,5.254651367027));
#957 = CARTESIAN_POINT('',(5.486838064681,5.210687473975));
#958 = CARTESIAN_POINT('',(5.493581607354,5.172080618706));
#959 = CARTESIAN_POINT('',(5.508122602344,5.100764049267));
#960 = CARTESIAN_POINT('',(5.515940392079,5.069545469471));
#961 = CARTESIAN_POINT('',(5.523820251274,5.044731404679));
#962 = CARTESIAN_POINT('',(5.531737758262,5.026037363705));
#963 = CARTESIAN_POINT('',(5.539670336661,5.013179418905));
#964 = CARTESIAN_POINT('',(5.5653271784,4.989533771893));
#965 = CARTESIAN_POINT('',(5.583015084154,5.000986332372));
#966 = CARTESIAN_POINT('',(5.600513830129,5.036906312023));
#967 = CARTESIAN_POINT('',(5.617731138496,5.094945489918));
#968 = CARTESIAN_POINT('',(5.634583603101,5.173592657199));
#969 = CARTESIAN_POINT('',(5.660876603313,5.33180490742));
#970 = CARTESIAN_POINT('',(5.670617691484,5.398770159455));
#971 = CARTESIAN_POINT('',(5.680174025708,5.472959512651));
#972 = CARTESIAN_POINT('',(5.68952805112,5.554485274887));
#973 = CARTESIAN_POINT('',(5.698644093321,5.643565976566));
#974 = CARTESIAN_POINT('',(5.713729468754,5.80936122229));
#975 = CARTESIAN_POINT('',(5.719846531648,5.882207553023));
#976 = CARTESIAN_POINT('',(5.725801865633,5.959229727064));
#977 = CARTESIAN_POINT('',(5.731573656539,6.040681405526));
#978 = CARTESIAN_POINT('',(5.73712623055,6.126813393265));
#979 = CARTESIAN_POINT('',(5.748421943064,6.321488330547));
#980 = CARTESIAN_POINT('',(5.754106189389,6.431848755784));
#981 = CARTESIAN_POINT('',(5.759371836547,6.549185379659));
#982 = CARTESIAN_POINT('',(5.764105795241,6.673679059771));
#983 = CARTESIAN_POINT('',(5.768171135719,6.805429990854));
#984 = CARTESIAN_POINT('',(5.773443453609,7.032002155718));
#985 = CARTESIAN_POINT('',(5.775152419732,7.122479179311));
#986 = CARTESIAN_POINT('',(5.776475636619,7.215188157543));
#987 = CARTESIAN_POINT('',(5.777373670026,7.309450886063));
#988 = CARTESIAN_POINT('',(5.777824796895,7.404603940624));
#989 = CARTESIAN_POINT('',(5.777824796895,7.5));
#990 = ( GEOMETRIC_REPRESENTATION_CONTEXT(2) 
PARAMETRIC_REPRESENTATION_CONTEXT() REPRESENTATION_CONTEXT('2D SPACE',''
  ) );
#991 = PCURVE('',#357,#992);
#992 = DEFINITIONAL_REPRESENTATION('',(#993),#1106);
#993 = B_SPLINE_CURVE_WITH_KNOTS('',6,(#994,#995,#996,#997,#998,#999,
    #1000,#1001,#1002,#1003,#1004,#1005,#1006,#1007,#1008,#1009,#1010,
    #1011,#1012,#1013,#1014,#1015,#1016,#1017,#1018,#1019,#1020,#1021,
    #1022,#1023,#1024,#1025,#1026,#1027,#1028,#1029,#1030,#1031,#1032,
    #1033,#1034,#1035,#1036,#1037,#1038,#1039,#1040,#1041,#1042,#1043,
    #1044,#1045,#1046,#1047,#1048,#1049,#1050,#1051,#1052,#1053,#1054,
    #1055,#1056,#1057,#1058,#1059,#1060,#1061,#1062,#1063,#1064,#1065,
    #1066,#1067,#1068,#1069,#1070,#1071,#1072,#1073,#1074,#1075,#1076,
    #1077,#1078,#1079,#1080,#1081,#1082,#1083,#1084,#1085,#1086,#1087,
    #1088,#1089,#1090,#1091,#1092,#1093,#1094,#1095,#1096,#1097,#1098,
    #1099,#1100,#1101,#1102,#1103,#1104,#1105),.UNSPECIFIED.,.F.,.F.,(7,
    5,5,5,5,5,5,5,5,5,5,5,5,5,5,5,5,5,5,5,5,5,7),(0.,3.025680395191E-02,
    7.847633268525E-02,0.120444405783,0.181855827758,0.278938999559,
    0.323538837603,0.363446984821,0.405175507602,0.454572144553,
    0.475518270366,0.499789580052,0.545180967349,0.581917553619,
    0.61146335322,0.635864408636,0.674885911224,0.719163540304,
    0.818201571975,0.878191064218,0.920848371619,0.969413741655,1.),
  .UNSPECIFIED.);
#994 = CARTESIAN_POINT('',(0.,31.682458365519));
#995 = CARTESIAN_POINT('',(3.773350919596E-02,31.682458365519));
#996 = CARTESIAN_POINT('',(7.537342573822E-02,31.690178051867));
#997 = CARTESIAN_POINT('',(0.112764728901,31.705548023919));
#998 = CARTESIAN_POINT('',(0.149744601739,31.728187464583));
#999 = CARTESIAN_POINT('',(0.186127377833,31.757408749328));
#1000 = CARTESIAN_POINT('',(0.27836395365,31.84770316967));
#1001 = CARTESIAN_POINT('',(0.332980064408,31.91741369806));
#1002 = CARTESIAN_POINT('',(0.385746152087,31.998475862078));
#1003 = CARTESIAN_POINT('',(0.436808879215,32.088411258995));
#1004 = CARTESIAN_POINT('',(0.486292420117,32.185168386302));
#1005 = CARTESIAN_POINT('',(0.576120522655,32.375845081137));
#1006 = CARTESIAN_POINT('',(0.616948425342,32.468782732412));
#1007 = CARTESIAN_POINT('',(0.656925545391,32.565011739807));
#1008 = CARTESIAN_POINT('',(0.696178733013,32.663884573185));
#1009 = CARTESIAN_POINT('',(0.734845107655,32.764986905899));
#1010 = CARTESIAN_POINT('',(0.829022725238,33.018988979794));
#1011 = CARTESIAN_POINT('',(0.884039648483,33.174187833354));
#1012 = CARTESIAN_POINT('',(0.93837505025,33.33239216661));
#1013 = CARTESIAN_POINT('',(0.992279144024,33.492824882813));
#1014 = CARTESIAN_POINT('',(1.046016467567,33.655054628087));
#1015 = CARTESIAN_POINT('',(1.184994005612,34.077732116588));
#1016 = CARTESIAN_POINT('',(1.270362786117,34.340373787762));
#1017 = CARTESIAN_POINT('',(1.356669184816,34.60452882964));
#1018 = CARTESIAN_POINT('',(1.444559288327,34.868540376324));
#1019 = CARTESIAN_POINT('',(1.534708842588,35.130694142561));
#1020 = CARTESIAN_POINT('',(1.670705398196,35.507362299767));
#1021 = CARTESIAN_POINT('',(1.714143445916,35.625040890056));
#1022 = CARTESIAN_POINT('',(1.758244093813,35.741502588102));
#1023 = CARTESIAN_POINT('',(1.803044497043,35.856414273965));
#1024 = CARTESIAN_POINT('',(1.848588567999,35.969436195496));
#1025 = CARTESIAN_POINT('',(1.936398338191,36.179355299935));
#1026 = CARTESIAN_POINT('',(1.978509656961,36.276709327764));
#1027 = CARTESIAN_POINT('',(2.021253966034,36.371914791655));
#1028 = CARTESIAN_POINT('',(2.06462555801,36.464620210829));
#1029 = CARTESIAN_POINT('',(2.108624891374,36.554491240861));
#1030 = CARTESIAN_POINT('',(2.199930121013,36.731882592865));
#1031 = CARTESIAN_POINT('',(2.247293626528,36.819105315097));
#1032 = CARTESIAN_POINT('',(2.295291793746,36.902382885746));
#1033 = CARTESIAN_POINT('',(2.343874359654,36.981282342377));
#1034 = CARTESIAN_POINT('',(2.392995577072,37.055425192424));
#1035 = CARTESIAN_POINT('',(2.501343302122,37.206225388554));
#1036 = CARTESIAN_POINT('',(2.560734380017,37.280793994603));
#1037 = CARTESIAN_POINT('',(2.620676508089,37.347609736995));
#1038 = CARTESIAN_POINT('',(2.681066836873,37.406221729873));
#1039 = CARTESIAN_POINT('',(2.741799573636,37.456298172434));
#1040 = CARTESIAN_POINT('',(2.82860737015,37.515141817258));
#1041 = CARTESIAN_POINT('',(2.854500521653,37.531091985889));
#1042 = CARTESIAN_POINT('',(2.880431315697,37.545454771305));
#1043 = CARTESIAN_POINT('',(2.906393712029,37.558217549138));
#1044 = CARTESIAN_POINT('',(2.932382182429,37.569370615416));
#1045 = CARTESIAN_POINT('',(2.988530234718,37.58995768217));
#1046 = CARTESIAN_POINT('',(3.0186969444,37.598837462929));
#1047 = CARTESIAN_POINT('',(3.048884337207,37.605535894991));
#1048 = CARTESIAN_POINT('',(3.079085252786,37.610045934897));
#1049 = CARTESIAN_POINT('',(3.109292872985,37.612364129568));
#1050 = CARTESIAN_POINT('',(3.195994425112,37.612727167569));
#1051 = CARTESIAN_POINT('',(3.252499916911,37.605297768482));
#1052 = CARTESIAN_POINT('',(3.308962935735,37.590197013057));
#1053 = CARTESIAN_POINT('',(3.36533242533,37.567467191773));
#1054 = CARTESIAN_POINT('',(3.421559239152,37.537198881498));
#1055 = CARTESIAN_POINT('',(3.522946110398,37.469046243091));
#1056 = CARTESIAN_POINT('',(3.568170943598,37.433715172438));
#1057 = CARTESIAN_POINT('',(3.613221891729,37.393628819934));
#1058 = CARTESIAN_POINT('',(3.658057514253,37.348908347281));
#1059 = CARTESIAN_POINT('',(3.702637541371,37.29970987343));
#1060 = CARTESIAN_POINT('',(3.782531099957,37.203216004028));
#1061 = CARTESIAN_POINT('',(3.817946403404,37.157438045229));
#1062 = CARTESIAN_POINT('',(3.853141151066,37.10899836629));
#1063 = CARTESIAN_POINT('',(3.888093260363,37.058014945045));
#1064 = CARTESIAN_POINT('',(3.922780236742,37.004621831824));
#1065 = CARTESIAN_POINT('',(3.985586253118,36.903010012479));
#1066 = CARTESIAN_POINT('',(4.013796323483,36.855510716318));
#1067 = CARTESIAN_POINT('',(4.041800992313,36.806548317689));
#1068 = CARTESIAN_POINT('',(4.069592332838,36.756204041359));
#1069 = CARTESIAN_POINT('',(4.097161762686,36.704564850872));
#1070 = CARTESIAN_POINT('',(4.168218677876,36.56722091854));
#1071 = CARTESIAN_POINT('',(4.211332111868,36.479671261618));
#1072 = CARTESIAN_POINT('',(4.253846060532,36.389374240863));
#1073 = CARTESIAN_POINT('',(4.295759817424,36.296644622231));
#1074 = CARTESIAN_POINT('',(4.337067026452,36.201813637386));
#1075 = CARTESIAN_POINT('',(4.423926673118,35.995637672893));
#1076 = CARTESIAN_POINT('',(4.469305873398,35.883778478081));
#1077 = CARTESIAN_POINT('',(4.513946429066,35.769996295928));
#1078 = CARTESIAN_POINT('',(4.557890163414,35.654629696737));
#1079 = CARTESIAN_POINT('',(4.601172151611,35.538011574483));
#1080 = CARTESIAN_POINT('',(4.739227261727,35.157553371922));
#1081 = CARTESIAN_POINT('',(4.831410652146,34.890201517992));
#1082 = CARTESIAN_POINT('',(4.921203687813,34.620787278348));
#1083 = CARTESIAN_POINT('',(5.009320410248,34.351149003497));
#1084 = CARTESIAN_POINT('',(5.096443086081,34.083049319495));
#1085 = CARTESIAN_POINT('',(5.235927097534,33.658831007639));
#1086 = CARTESIAN_POINT('',(5.28843984243,33.500270240578));
#1087 = CARTESIAN_POINT('',(5.341107131125,33.343417897967));
#1088 = CARTESIAN_POINT('',(5.3941730422,33.188676185581));
#1089 = CARTESIAN_POINT('',(5.447871478046,33.036761665896));
#1090 = CARTESIAN_POINT('',(5.541226924125,32.783690058283));
#1091 = CARTESIAN_POINT('',(5.580455556258,32.680557016196));
#1092 = CARTESIAN_POINT('',(5.620276222896,32.579677453137));
#1093 = CARTESIAN_POINT('',(5.660831793959,32.481473753625));
#1094 = CARTESIAN_POINT('',(5.70225432092,32.386612950556));
#1095 = CARTESIAN_POINT('',(5.792962021715,32.192934645001));
#1096 = CARTESIAN_POINT('',(5.84271208229,32.095024681276));
#1097 = CARTESIAN_POINT('',(5.89405379764,32.003944034636));
#1098 = CARTESIAN_POINT('',(5.947118849355,31.921761381766));
#1099 = CARTESIAN_POINT('',(6.002060435668,31.850994994341));
#1100 = CARTESIAN_POINT('',(6.095013458523,31.759058998123));
#1101 = CARTESIAN_POINT('',(6.131779445581,31.729209923572));
#1102 = CARTESIAN_POINT('',(6.169160652955,31.706069076608));
#1103 = CARTESIAN_POINT('',(6.20696560929,31.690352868301));
#1104 = CARTESIAN_POINT('',(6.245026883429,31.682458365519));
#1105 = CARTESIAN_POINT('',(6.28318530718,31.682458365519));
#1106 = ( GEOMETRIC_REPRESENTATION_CONTEXT(2) 
PARAMETRIC_REPRESENTATION_CONTEXT() REPRESENTATION_CONTEXT('2D SPACE',''
  ) );
#1107 = ADVANCED_FACE('',(#1108),#229,.F.);
#1108 = FACE_BOUND('',#1109,.F.);
#1109 = EDGE_LOOP('',(#1110,#1111,#1132,#1133));
#1110 = ORIENTED_EDGE('',*,*,#208,.F.);
#1111 = ORIENTED_EDGE('',*,*,#1112,.F.);
#1112 = EDGE_CURVE('',#407,#209,#1113,.T.);
#1113 = SEAM_CURVE('',#1114,(#1118,#1125),.PCURVE_S1.);
#1114 = LINE('',#1115,#1116);
#1115 = CARTESIAN_POINT('',(17.5,22.,7.5));
#1116 = VECTOR('',#1117,1.);
#1117 = DIRECTION('',(0.,-1.,2.22044604925E-16));
#1118 = PCURVE('',#229,#1119);
#1119 = DEFINITIONAL_REPRESENTATION('',(#1120),#1124);
#1120 = LINE('',#1121,#1122);
#1121 = CARTESIAN_POINT('',(6.28318530718,-0.));
#1122 = VECTOR('',#1123,1.);
#1123 = DIRECTION('',(0.,1.));
#1124 = ( GEOMETRIC_REPRESENTATION_CONTEXT(2) 
PARAMETRIC_REPRESENTATION_CONTEXT() REPRESENTATION_CONTEXT('2D SPACE',''
  ) );
#1125 = PCURVE('',#229,#1126);
#1126 = DEFINITIONAL_REPRESENTATION('',(#1127),#1131);
#1127 = LINE('',#1128,#1129);
#1128 = CARTESIAN_POINT('',(0.,-0.));
#1129 = VECTOR('',#1130,1.);
#1130 = DIRECTION('',(0.,1.));
#1131 = ( GEOMETRIC_REPRESENTATION_CONTEXT(2) 
PARAMETRIC_REPRESENTATION_CONTEXT() REPRESENTATION_CONTEXT('2D SPACE',''
  ) );
#1132 = ORIENTED_EDGE('',*,*,#406,.T.);
#1133 = ORIENTED_EDGE('',*,*,#1112,.T.);
#1134 = ADVANCED_FACE('',(#1135),#357,.F.);
#1135 = FACE_BOUND('',#1136,.F.);
#1136 = EDGE_LOOP('',(#1137,#1138,#1159,#1160));
#1137 = ORIENTED_EDGE('',*,*,#758,.F.);
#1138 = ORIENTED_EDGE('',*,*,#1139,.F.);
#1139 = EDGE_CURVE('',#337,#759,#1140,.T.);
#1140 = SEAM_CURVE('',#1141,(#1145,#1152),.PCURVE_S1.);
#1141 = LINE('',#1142,#1143);
#1142 = CARTESIAN_POINT('',(17.5,22.,7.5));
#1143 = VECTOR('',#1144,1.);
#1144 = DIRECTION('',(0.,-1.,2.22044604925E-16));
#1145 = PCURVE('',#357,#1146);
#1146 = DEFINITIONAL_REPRESENTATION('',(#1147),#1151);
#1147 = LINE('',#1148,#1149);
#1148 = CARTESIAN_POINT('',(6.28318530718,-0.));
#1149 = VECTOR('',#1150,1.);
#1150 = DIRECTION('',(0.,1.));
#1151 = ( GEOMETRIC_REPRESENTATION_CONTEXT(2) 
PARAMETRIC_REPRESENTATION_CONTEXT() REPRESENTATION_CONTEXT('2D SPACE',''
  ) );
#1152 = PCURVE('',#357,#1153);
#1153 = DEFINITIONAL_REPRESENTATION('',(#1154),#1158);
#1154 = LINE('',#1155,#1156);
#1155 = CARTESIAN_POINT('',(0.,-0.));
#1156 = VECTOR('',#1157,1.);
#1157 = DIRECTION('',(0.,1.));
#1158 = ( GEOMETRIC_REPRESENTATION_CONTEXT(2) 
PARAMETRIC_REPRESENTATION_CONTEXT() REPRESENTATION_CONTEXT('2D SPACE',''
  ) );
#1159 = ORIENTED_EDGE('',*,*,#336,.T.);
#1160 = ORIENTED_EDGE('',*,*,#1139,.T.);
#1161 = ( GEOMETRIC_REPRESENTATION_CONTEXT(3) 
GLOBAL_UNCERTAINTY_ASSIGNED_CONTEXT((#1165)) 
GLOBAL_UNIT_ASSIGNED_CONTEXT((#1162,#1163,#1164)) REPRESENTATION_CONTEXT
('Context #1','3D Context with UNIT and UNCERTAINTY') );
#1162 = ( LENGTH_UNIT() NAMED_UNIT(*) SI_UNIT(.MILLI.,.METRE.) );
#1163 = ( NAMED_UNIT(*) PLANE_ANGLE_UNIT() SI_UNIT($,.RADIAN.) );
#1164 = ( NAMED_UNIT(*) SI_UNIT($,.STERADIAN.) SOLID_ANGLE_UNIT() );
#1165 = UNCERTAINTY_MEASURE_WITH_UNIT(LENGTH_MEASURE(1.E-07),#1162,
  'distance_accuracy_value','confusion accuracy');
#1166 = PRODUCT_RELATED_PRODUCT_CATEGORY('part',$,(#7));
ENDSEC;
END-ISO-10303-21;
